<?xml version="1.0" encoding="utf-8"?>
<!-- Generator: Adobe Illustrator 16.0.0, SVG Export Plug-In . SVG Version: 6.00 Build 0)  -->
<!DOCTYPE svg PUBLIC "-//W3C//DTD SVG 1.1//EN" "http://www.w3.org/Graphics/SVG/1.1/DTD/svg11.dtd">
<svg version="1.1" id="Слой_1" xmlns="http://www.w3.org/2000/svg" xmlns:xlink="http://www.w3.org/1999/xlink" x="0px" y="0px"
	 width="602.479px" height="619.975px" viewBox="4.688 78.525 602.479 619.975"
	 enable-background="new 4.688 78.525 602.479 619.975" xml:space="preserve">
<g>
	<path fill="none" stroke="#D2BC5A" stroke-width="16" stroke-miterlimit="10" d="M242.25,690.525h178.5"/>
	<path fill="none" stroke="#D2BC5A" stroke-width="16" stroke-miterlimit="10" d="M242.25,282.525H12.75v408h229.5V282.525z"/>
	<path fill="none" stroke="#D2BC5A" stroke-width="16" stroke-miterlimit="10" d="M573.75,308.025h-127.5v-76.5h127.5V308.025z"/>
	<path fill="none" stroke="#D2BC5A" stroke-width="16" stroke-miterlimit="10" d="M216.75,257.025H38.25v-102h178.5V257.025z"/>
	<path fill="none" stroke="#D2BC5A" stroke-width="16" stroke-miterlimit="10" d="M114.75,155.025v-76.5"/>
	<path fill="none" stroke="#D2BC5A" stroke-width="16" stroke-miterlimit="10" d="M599.25,690.525h-178.5v-357h178.5V690.525z"/>
	<path fill="none" stroke="#D2BC5A" stroke-width="16" stroke-miterlimit="10" d="M535.5,690.525h-53.55v-51h53.55V690.525z"/>
	<path fill="none" stroke="#D2BC5A" stroke-width="16" stroke-miterlimit="10" d="M165.75,639.525h-76.5v51h76.5V639.525z"/>
	<path fill="none" stroke="#D2BC5A" stroke-width="16" stroke-miterlimit="10" d="M293.25,512.025h76.5"/>
	<path fill="none" stroke="#D2BC5A" stroke-width="16" stroke-miterlimit="10" d="M293.25,563.025h76.5"/>
	<path fill="none" stroke="#D2BC5A" stroke-width="16" stroke-miterlimit="10" d="M293.25,614.025h76.5"/>
	<path fill="none" stroke="#D2BC5A" stroke-width="16" stroke-miterlimit="10" d="M242.25,422.775h178.5"/>
	<path fill="none" stroke="#D2BC5A" stroke-width="16" stroke-miterlimit="10" d="M89.25,206.025h76.5"/>
	<path fill="none" stroke="#D2BC5A" stroke-width="16" stroke-miterlimit="10" d="M63.75,320.775h127.5"/>
	<path fill="none" stroke="#D2BC5A" stroke-width="16" stroke-miterlimit="10" d="M63.75,371.775h127.5"/>
	<path fill="none" stroke="#D2BC5A" stroke-width="16" stroke-miterlimit="10" d="M63.75,422.775h127.5"/>
	<path fill="none" stroke="#D2BC5A" stroke-width="16" stroke-miterlimit="10" d="M63.75,473.775h127.5"/>
	<path fill="none" stroke="#D2BC5A" stroke-width="16" stroke-miterlimit="10" d="M63.75,524.775h127.5"/>
	<path fill="none" stroke="#D2BC5A" stroke-width="16" stroke-miterlimit="10" d="M63.75,575.775h127.5"/>
	<path fill="none" stroke="#D2BC5A" stroke-width="16" stroke-miterlimit="10" d="M471.75,371.775h76.5"/>
	<path fill="none" stroke="#D2BC5A" stroke-width="16" stroke-miterlimit="10" d="M471.75,422.775h76.5"/>
	<path fill="none" stroke="#D2BC5A" stroke-width="16" stroke-miterlimit="10" d="M471.75,473.775h76.5"/>
	<path fill="none" stroke="#D2BC5A" stroke-width="16" stroke-miterlimit="10" d="M471.75,524.775h76.5"/>
	<path fill="none" stroke="#D2BC5A" stroke-width="16" stroke-miterlimit="10" d="M471.75,575.775h76.5"/>
</g>
</svg>
