<?xml version="1.0" encoding="UTF-8"?>
<!DOCTYPE svg PUBLIC "-//W3C//DTD SVG 1.1//EN" "http://www.w3.org/Graphics/SVG/1.1/DTD/svg11.dtd">
<!-- Creator: CorelDRAW X6 -->
<svg xmlns="http://www.w3.org/2000/svg" xml:space="preserve" width="672px" height="600px" version="1.1" style="shape-rendering:geometricPrecision; text-rendering:geometricPrecision; image-rendering:optimizeQuality; fill-rule:evenodd; clip-rule:evenodd"
viewBox="0 0 672 600"
 xmlns:xlink="http://www.w3.org/1999/xlink">
 <defs>
  <style type="text/css">
   <![CDATA[
    .fil0 {fill:#CBBB61;fill-rule:nonzero}
   ]]>
  </style>
 </defs>
 <g id="Слой_x0020_1">
  <metadata id="CorelCorpID_0Corel-Layer"/>
  <path class="fil0" d="M20 123l0 71c0,9 4,18 10,24 4,4 10,8 16,9l0 -103 15 0 0 103c6,-1 12,-5 16,-9 6,-6 10,-15 10,-24l0 -71 15 0 0 71c0,13 -5,26 -14,34 -7,7 -16,12 -27,14l0 256 -15 0 0 -256c-10,-2 -20,-7 -27,-14 -9,-9 -14,-21 -14,-34l0 -71 15 0zm311 -38c59,0 113,24 152,63 39,39 63,92 63,152 0,59 -24,113 -63,152 -39,39 -92,63 -152,63 -59,0 -113,-24 -152,-63 -39,-39 -63,-92 -63,-152 0,-59 24,-113 63,-152 39,-39 92,-63 152,-63zm141 73c-36,-36 -86,-58 -141,-58 -55,0 -105,22 -141,58 -36,36 -58,86 -58,141 0,55 22,105 58,141 36,36 86,58 141,58 55,0 105,-22 141,-58 36,-36 58,-86 58,-141 0,-55 -22,-105 -58,-141zm-141 20c33,0 64,14 86,36 22,22 36,52 36,86 0,33 -14,64 -36,86 -22,22 -52,36 -86,36 -33,0 -64,-14 -86,-36 -22,-22 -36,-52 -36,-86 0,-33 14,-64 36,-86 22,-22 52,-36 86,-36zm75 46c-19,-19 -46,-31 -75,-31 -29,0 -56,12 -75,31 -19,19 -31,46 -31,75 0,29 12,56 31,75 19,19 46,31 75,31 29,0 56,-12 75,-31 19,-19 31,-46 31,-75 0,-29 -12,-56 -31,-75zm217 24l0 249 -15 0 0 -249c-23,-2 -35,-14 -41,-31 -3,-8 -4,-17 -3,-26 0,-9 2,-18 5,-27 9,-27 27,-50 47,-50 19,0 38,23 47,50 3,9 5,18 5,27 0,9 -1,18 -3,26 -6,16 -19,29 -41,31zm25 -79c-7,-21 -20,-39 -33,-39 -13,0 -26,18 -33,39 -2,7 -4,15 -4,23 0,7 0,14 2,20 4,12 15,21 35,21 20,0 30,-9 35,-21 2,-6 3,-13 2,-20 0,-8 -2,-15 -4,-23z"/>
 </g>
</svg>
