<?xml version="1.0" encoding="utf-8"?>
<!-- Generator: Adobe Illustrator 16.0.0, SVG Export Plug-In . SVG Version: 6.00 Build 0)  -->
<!DOCTYPE svg PUBLIC "-//W3C//DTD SVG 1.1//EN" "http://www.w3.org/Graphics/SVG/1.1/DTD/svg11.dtd">
<svg version="1.1" id="Слой_1" xmlns="http://www.w3.org/2000/svg" xmlns:xlink="http://www.w3.org/1999/xlink" x="0px" y="0px"
	 width="602.771px" height="424.021px" viewBox="4.5 183.979 602.771 424.021" enable-background="new 4.5 183.979 602.771 424.021"
	 xml:space="preserve">
<g>
	<path fill="none" stroke="#CBBB61" stroke-width="16" stroke-miterlimit="10" d="M127.5,357.75l21.675-140.25
		c2.55-12.75,12.75-25.5,25.5-25.5h262.65c12.75,0,22.95,14.025,25.5,25.5L484.5,357.75"/>
	<path fill="none" stroke="#CBBB61" stroke-width="16" stroke-miterlimit="10" d="M369.75,549h127.5c56.1,0,102-45.9,102-102
		c0,0,0,0,0-1.275c0-71.399-79.05-116.024-140.25-77.774l-105.825,65.024c-28.05,17.851-65.025,19.125-94.35,0L153,367.95
		c-61.2-36.975-140.25,6.375-140.25,77.774c0,0,0,0,0,1.275c0,56.1,45.9,102,102,102h127.5"/>
	<path fill="none" stroke="#CBBB61" stroke-width="16" stroke-miterlimit="10" d="M469.2,362.85
		c-36.976-34.425-96.9-56.1-163.2-56.1s-126.225,21.675-163.2,56.1"/>
	<path fill="none" stroke="#CBBB61" stroke-width="16" stroke-miterlimit="10" d="M369.75,574.5h-127.5V498h127.5V574.5z"/>
	<path fill="none" stroke="#CBBB61" stroke-width="16" stroke-miterlimit="10" d="M140.25,447c0,21.675-16.575,38.25-38.25,38.25
		S63.75,468.675,63.75,447s16.575-38.25,38.25-38.25S140.25,425.325,140.25,447z"/>
	<path fill="none" stroke="#CBBB61" stroke-width="16" stroke-miterlimit="10" d="M548.25,447c0,21.675-16.575,38.25-38.25,38.25
		s-38.25-16.575-38.25-38.25s16.575-38.25,38.25-38.25S548.25,425.325,548.25,447z"/>
	<path fill="none" stroke="#CBBB61" stroke-width="16" stroke-miterlimit="10" d="M306,383.25c-7.65,0-12.75,5.1-12.75,12.75
		c0,7.65,5.1,12.75,12.75,12.75s12.75-5.1,12.75-12.75C318.75,388.35,313.65,383.25,306,383.25L306,383.25z"/>
	<path fill="none" stroke="#CBBB61" stroke-width="16" stroke-miterlimit="10" d="M446.25,549v51h76.5v-54.825"/>
	<path fill="none" stroke="#CBBB61" stroke-width="16" stroke-miterlimit="10" d="M89.25,545.175V600h76.5v-51"/>
</g>
</svg>
