<?xml version="1.0" encoding="UTF-8"?>
<!DOCTYPE svg PUBLIC "-//W3C//DTD SVG 1.1//EN" "http://www.w3.org/Graphics/SVG/1.1/DTD/svg11.dtd">
<!-- Creator: CorelDRAW X6 -->
<svg xmlns="http://www.w3.org/2000/svg" xml:space="preserve" width="600px" height="600px" version="1.1" style="shape-rendering:geometricPrecision; text-rendering:geometricPrecision; image-rendering:optimizeQuality; fill-rule:evenodd; clip-rule:evenodd"
viewBox="0 0 600 600"
 xmlns:xlink="http://www.w3.org/1999/xlink">
 <defs>
  <style type="text/css">
   <![CDATA[
    .fil0 {fill:#CBBB61;fill-rule:nonzero}
   ]]>
  </style>
 </defs>
 <g id="Слой_x0020_1">
  <metadata id="CorelCorpID_0Corel-Layer"/>
  <path class="fil0" d="M333 413l0 104 151 42c5,1 8,7 7,12 -1,5 -7,8 -12,7l-153 -42 35 46c3,4 2,10 -2,13 -4,3 -10,2 -13,-2l-45 -60 -4 1 -157 50c-5,2 -10,-1 -12,-6 -2,-5 1,-10 6,-12l150 -48 0 -104c-115,-4 -190,-52 -225,-100 -12,-16 -19,-32 -22,-47 -3,-16 -1,-30 6,-42 10,-16 29,-25 58,-23 25,2 44,17 62,30 16,13 32,25 50,24 14,-1 12,-25 9,-58 -1,-14 -2,-30 -2,-46 0,-72 24,-149 182,-149 53,0 95,13 123,35 13,11 24,23 31,38 7,14 11,30 11,47 0,32 -13,69 -41,107 7,1 13,3 18,5 7,3 13,8 16,14 3,6 5,12 5,19 0,12 -4,25 -9,37 -13,28 -43,57 -92,78 -34,15 -77,26 -129,29zm-40 -18c0,0 1,0 1,0 1,0 1,0 2,0 4,0 8,0 12,0 2,0 4,0 7,0 61,-8 87,-46 107,-82 -1,0 -2,0 -3,0 -62,-18 -141,-16 -193,-2 -17,4 -30,10 -40,16 -7,5 -12,10 -11,15 0,3 2,6 5,9 3,4 3,10 -1,13 -4,3 -10,3 -13,-1 -6,-7 -9,-14 -9,-21 0,-12 7,-23 20,-31 11,-7 27,-14 45,-19 55,-14 138,-17 203,2 2,1 4,2 6,4 18,-34 35,-63 71,-67 31,-39 45,-76 45,-107 0,-14 -3,-27 -9,-39 -6,-12 -14,-22 -25,-31 -25,-20 -63,-31 -111,-31 -141,0 -163,67 -163,130 0,15 1,31 2,45 3,43 6,76 -27,78 -25,1 -43,-13 -62,-28 -16,-12 -32,-25 -52,-27 -21,-2 -34,4 -40,14 -4,7 -5,17 -3,28 2,12 9,26 19,40 33,45 106,91 218,92zm11 20l0 103c3,-2 7,-2 10,0 0,0 0,0 0,0l0 -104c-3,0 -7,1 -11,1zm82 -28c26,-5 50,-12 69,-21 44,-19 71,-45 82,-69 5,-10 8,-20 8,-29 0,-4 -1,-7 -2,-9 -2,-3 -4,-5 -8,-6 -6,-3 -15,-4 -27,-4 -31,1 -46,28 -63,59 -15,27 -31,57 -60,78z"/>
 </g>
</svg>
