<?xml version="1.0" encoding="utf-8"?>
<!-- Generator: Adobe Illustrator 16.0.0, SVG Export Plug-In . SVG Version: 6.00 Build 0)  -->
<!DOCTYPE svg PUBLIC "-//W3C//DTD SVG 1.1//EN" "http://www.w3.org/Graphics/SVG/1.1/DTD/svg11.dtd">
<svg version="1.1" id="Слой_1" xmlns="http://www.w3.org/2000/svg" xmlns:xlink="http://www.w3.org/1999/xlink" x="0px" y="0px"
	 width="526.166px" height="525.896px" viewBox="43 138.167 526.166 525.896" enable-background="new 43 138.167 526.166 525.896"
	 xml:space="preserve">
<g>
	<path fill="none" stroke="#202830" stroke-width="16" stroke-miterlimit="10" d="M350.625,345h44.625v72.675L480.675,345H561V146.1
		H228.225v89.25"/>
	<path fill="none" stroke="#202830" stroke-width="16" stroke-miterlimit="10" d="M479.4,245.55h-21.676v21.675H479.4V245.55
		L479.4,245.55z"/>
	<path fill="none" stroke="#202830" stroke-width="16" stroke-miterlimit="10" d="M413.1,245.55h-21.675v21.675H413.1V245.55
		L413.1,245.55z"/>
	<path fill="none" stroke="#202830" stroke-width="16" stroke-miterlimit="10" d="M348.075,245.55H326.4v21.675h21.675V245.55
		L348.075,245.55z"/>
	<path fill="none" stroke="#202830" stroke-width="16" stroke-miterlimit="10" d="M211.65,656.1h172.125c0,0,0-21.675,0-54.824
		c0-11.476-66.301-44.625-122.4-66.301V490.35c0,0,20.4-7.649,20.4-54.824c15.3,0,21.675-44.625,0-44.625
		c0-5.1,16.575-29.325,10.2-54.825c-11.475-44.625-119.85-44.625-131.325,0c-47.175-8.925-8.925,48.45-8.925,54.825
		c-21.675,0-21.675,44.625,0,44.625c0,47.175,21.675,54.824,21.675,54.824v44.625C117.3,555.375,51,588.525,51,600
		c0,21.675,0,54.825,0,54.825h160.65V656.1z"/>
</g>
</svg>
