<?xml version="1.0" encoding="UTF-8"?>
<!DOCTYPE svg PUBLIC "-//W3C//DTD SVG 1.1//EN" "http://www.w3.org/Graphics/SVG/1.1/DTD/svg11.dtd">
<!-- Creator: CorelDRAW X6 -->
<svg xmlns="http://www.w3.org/2000/svg" xml:space="preserve" width="600px" height="600px" version="1.1" style="shape-rendering:geometricPrecision; text-rendering:geometricPrecision; image-rendering:optimizeQuality; fill-rule:evenodd; clip-rule:evenodd"
viewBox="0 0 600 600"
 xmlns:xlink="http://www.w3.org/1999/xlink">
 <defs>
  <style type="text/css">
   <![CDATA[
    .fil0 {fill:#CBBB61;fill-rule:nonzero}
   ]]>
  </style>
 </defs>
 <g id="Слой_x0020_1">
  <metadata id="CorelCorpID_0Corel-Layer"/>
  <path class="fil0" d="M23 4c95,27 188,40 280,40 92,0 184,-13 274,-40l12 -4 0 13 0 575 0 12 -12 -3c-91,-20 -183,-31 -276,-31 -92,0 -186,10 -280,31l-12 3 0 -12 0 -575 0 -13 12 3zm547 465l-5 -1c-18,-2 -47,-6 -60,-8l-8 -1 0 -8 0 -36 -83 0 -10 0 0 -9 0 -114 -37 0 0 148 0 9 -9 0 -44 0 -10 0 0 -10 0 -249 -55 0 0 175 0 9 -10 0 -30 0 -10 0 0 -9 0 -111 -41 0 0 111 0 9 -10 0 -52 0 0 77 0 8 -8 1c-7,1 -24,3 -40,6 -7,1 -14,2 -19,3l0 107c91,-19 182,-29 272,-29 90,0 179,10 268,29l0 -108zm-540 -18c5,-1 10,-2 16,-3 11,-2 23,-4 32,-5l0 -78 0 -9 10 0 52 0 0 -111 0 -9 10 0 60 0 10 0 0 9 0 111 11 0 0 -175 0 -9 10 0 74 0 10 0 0 9 0 249 25 0 0 -148 0 -9 9 0 56 0 10 0 0 9 0 114 83 0 10 0 0 9 0 37c15,2 37,5 52,7l3 0 0 -424c-88,25 -177,38 -267,37 -90,0 -181,-13 -273,-38l0 425z"/>
 </g>
</svg>
