<?xml version="1.0" encoding="UTF-8"?>
<!DOCTYPE svg PUBLIC "-//W3C//DTD SVG 1.1//EN" "http://www.w3.org/Graphics/SVG/1.1/DTD/svg11.dtd">
<!-- Creator: CorelDRAW X6 -->
<svg xmlns="http://www.w3.org/2000/svg" xml:space="preserve" width="600px" height="600px" version="1.1" style="shape-rendering:geometricPrecision; text-rendering:geometricPrecision; image-rendering:optimizeQuality; fill-rule:evenodd; clip-rule:evenodd"
viewBox="0 0 600 600"
 xmlns:xlink="http://www.w3.org/1999/xlink">
 <defs>
  <style type="text/css">
   <![CDATA[
    .fil0 {fill:#CBBB61;fill-rule:nonzero}
   ]]>
  </style>
 </defs>
 <g id="Слой_x0020_1">
  <metadata id="CorelCorpID_0Corel-Layer"/>
  <path class="fil0" d="M445 200c0,-6 4,-10 10,-10 6,0 10,4 10,10l0 33c0,6 -4,10 -10,10 -6,0 -10,-4 -10,-10l0 -33zm35 102c-1,-5 2,-11 8,-12 5,-1 11,2 12,8l42 193 2 10 -10 2 -408 90 -10 2 -2 -10 -105 -480 -2 -10 10 -2 408 -90 10 -2 2 10 11 49c1,5 -2,11 -8,12 -5,1 -11,-2 -12,-8l-9 -39 -388 86 101 460 388 -86 -40 -184zm-219 -151l-95 0 0 28 0 10 -10 0 -15 0 0 94 38 0 0 -30 0 -56 0 -10 10 0 73 0 0 -35zm-105 -20l115 0 10 0 0 10 0 55 0 10 -10 0 -73 0 0 46 0 40 0 10 -10 0 -58 0 -10 0 0 -10 0 -114 0 -10 10 0 15 0 0 -28 0 -10 10 0zm139 138l59 0 10 0 0 10 0 69 0 10 -10 0 -59 0 -10 0 0 -10 0 -69 0 -10 10 0zm49 20l-39 0 0 49 39 0 0 -49zm-177 184l0 -116 0 -10 10 0 50 0 10 0 0 10 0 116 0 10 -10 0 -50 0 -10 0 0 -10zm20 -106l0 96 30 0 0 -96 -30 0zm129 92l0 -52 0 -10 10 0 99 0 10 0 0 10 0 52 0 10 -10 0 -99 0 -10 0 0 -10zm20 -42l0 32 79 0 0 -32 -79 0zm99 -162l42 0c8,0 15,-3 21,-9 5,-5 9,-13 9,-21l0 -49 -100 0 0 49c0,8 3,15 9,21 5,5 13,9 21,9zm42 20l-42 0c-14,0 -26,-6 -35,-14 -9,-9 -14,-21 -14,-35l0 -59 0 -10 10 0 11 0 0 -32c0,-10 4,-19 10,-25 6,-6 15,-10 25,-10l27 0c10,0 19,4 25,10 6,6 10,15 10,25l0 32 11 0 10 0 0 10 0 59c0,14 -6,26 -14,35 -9,9 -21,14 -35,14zm-50 -118l58 0 0 -32c0,-4 -2,-8 -5,-11 -3,-3 -7,-5 -11,-5l-27 0c-4,0 -8,2 -11,5 -3,3 -5,7 -5,11l0 32z"/>
 </g>
</svg>
