<?xml version="1.0" encoding="utf-8"?>
<!-- Generator: Adobe Illustrator 16.0.0, SVG Export Plug-In . SVG Version: 6.00 Build 0)  -->
<!DOCTYPE svg PUBLIC "-//W3C//DTD SVG 1.1//EN" "http://www.w3.org/Graphics/SVG/1.1/DTD/svg11.dtd">
<svg version="1.1" id="Слой_1" xmlns="http://www.w3.org/2000/svg" xmlns:xlink="http://www.w3.org/1999/xlink" x="0px" y="0px"
	 width="602.667px" height="594.5px" viewBox="-1.75 94.75 602.667 594.5" enable-background="new -1.75 94.75 602.667 594.5"
	 xml:space="preserve">
<g>
	<path fill="none" stroke="#CBBB61" stroke-width="16" stroke-miterlimit="10" d="M490.875,204.75c0-14.025-11.475-25.5-25.5-25.5
		c-28.05,0-51,22.95-51,51c0,42.075,34.425,76.5,76.5,76.5c56.1,0,102-45.9,102-102s-45.9-102-102-102h-382.5
		c-56.1,0-102,45.9-102,102s45.9,102,102,102c42.075,0,76.5-34.425,76.5-76.5c0-28.05-22.95-51-51-51
		c-14.025,0-25.5,11.475-25.5,25.5"/>
	<path fill="none" stroke="#CBBB61" stroke-width="16" stroke-miterlimit="10" d="M184.875,230.25h229.5"/>
	<path fill="none" stroke="#CBBB61" stroke-width="16" stroke-miterlimit="10" d="M165.75,281.25h269.025"/>
	<path fill="none" stroke="#CBBB61" stroke-width="16" stroke-miterlimit="10" d="M184.875,281.25v408"/>
	<path fill="none" stroke="#CBBB61" stroke-width="16" stroke-miterlimit="10" d="M414.375,281.25v408"/>
	<path fill="none" stroke="#CBBB61" stroke-width="16" stroke-miterlimit="10" d="M261.375,281.25v408"/>
	<path fill="none" stroke="#CBBB61" stroke-width="16" stroke-miterlimit="10" d="M337.875,281.25v408"/>
</g>
</svg>
