<?xml version="1.0" encoding="UTF-8"?>
<!DOCTYPE svg PUBLIC "-//W3C//DTD SVG 1.1//EN" "http://www.w3.org/Graphics/SVG/1.1/DTD/svg11.dtd">
<!-- Creator: CorelDRAW X6 -->
<svg xmlns="http://www.w3.org/2000/svg" xml:space="preserve" width="600px" height="600px" version="1.1" style="shape-rendering:geometricPrecision; text-rendering:geometricPrecision; image-rendering:optimizeQuality; fill-rule:evenodd; clip-rule:evenodd"
viewBox="0 0 600 600"
 xmlns:xlink="http://www.w3.org/1999/xlink"
 enable-background="new -1.75 94.75 602.667 594.5">
 <defs>
  <style type="text/css">
   <![CDATA[
    .fil0 {fill:#CBBB61;fill-rule:nonzero}
   ]]>
  </style>
 </defs>
 <g id="Слой_x0020_1">
  <metadata id="CorelCorpID_0Corel-Layer"/>
  <path class="fil0" d="M299 598c-86,-25 -148,-48 -188,-78 -42,-31 -61,-68 -61,-120l0 -381 12 -7c40,23 82,30 119,28 52,-2 95,-21 114,-39l11 0c19,17 62,36 112,39 37,2 78,-5 118,-28l12 7 0 381c0,52 -18,89 -59,120 -40,30 -101,53 -187,78l-5 0zm2 -408c27,0 52,6 75,17l1 0c0,0 0,1 1,1 8,4 15,8 23,13 30,20 54,48 70,82l3 5 -4 4c-23,21 -49,38 -78,49 -28,11 -58,17 -89,17 -31,0 -61,-6 -89,-17 -29,-11 -55,-28 -78,-49l-4 -4 3 -5c16,-34 40,-62 70,-82 6,-4 12,-8 19,-11 0,-1 1,-1 1,-2l1 1c24,-12 50,-18 77,-18zm90 44c-1,-1 -2,-1 -2,-2 2,8 3,16 3,24l0 0c0,25 -10,48 -27,65 -17,17 -40,27 -65,27l0 0 0 0c-25,0 -48,-10 -65,-27 -17,-17 -27,-40 -27,-65 0,-8 1,-15 3,-23 -25,17 -47,41 -61,69 20,18 43,32 68,42 26,10 54,16 83,16 29,0 57,-6 83,-16 25,-10 48,-24 68,-42 -15,-29 -36,-53 -61,-70zm-25 -14c-20,-9 -42,-14 -65,-14 -24,0 -47,5 -68,15 -2,4 -4,9 -6,14 -2,7 -3,14 -3,21 0,21 8,40 22,53 14,14 33,22 53,22l0 0 0 0c21,0 40,-8 53,-22 14,-14 22,-33 22,-53l0 0c0,-7 -1,-15 -3,-21 -2,-5 -4,-10 -7,-15zm-66 -7c11,0 21,5 29,12 7,7 12,18 12,29 0,11 -5,21 -12,29 -7,7 -18,12 -29,12 -11,0 -21,-5 -29,-12 -7,-7 -12,-18 -12,-29 0,-11 5,-21 12,-29 7,-7 18,-12 29,-12zm17 23c-4,-4 -11,-7 -17,-7 -7,0 -13,3 -17,7 -4,4 -7,11 -7,17 0,7 3,13 7,17 4,4 11,7 17,7 7,0 13,-3 17,-7 4,-4 7,-11 7,-17 0,-7 -3,-13 -7,-17zm-197 270c38,28 97,51 180,75 83,-24 142,-47 179,-75 36,-27 53,-61 53,-107l0 -368c-39,19 -79,25 -115,24 -51,-2 -94,-20 -117,-38 -23,18 -68,36 -119,38 -36,2 -77,-4 -116,-24l0 368c0,46 17,80 54,107z"/>
 </g>
</svg>
