<?xml version="1.0" encoding="UTF-8"?>
<!DOCTYPE svg PUBLIC "-//W3C//DTD SVG 1.1//EN" "http://www.w3.org/Graphics/SVG/1.1/DTD/svg11.dtd">
<!-- Creator: CorelDRAW X6 -->
<svg xmlns="http://www.w3.org/2000/svg" xml:space="preserve" width="600px" height="600px" version="1.1" style="shape-rendering:geometricPrecision; text-rendering:geometricPrecision; image-rendering:optimizeQuality; fill-rule:evenodd; clip-rule:evenodd"
viewBox="0 0 600 600"
 xmlns:xlink="http://www.w3.org/1999/xlink">
 <defs>
  <style type="text/css">
   <![CDATA[
    .fil0 {fill:#CBBB61;fill-rule:nonzero}
   ]]>
  </style>
 </defs>
 <g id="Слой_x0020_1">
  <metadata id="CorelCorpID_0Corel-Layer"/>
  <path class="fil0" d="M169 567l263 0 0 -46 -263 0 0 46zm297 -537c40,-16 67,-19 84,-11 16,7 24,21 25,40 1,16 -3,36 -10,58 -24,73 -88,167 -119,188 -7,10 -14,20 -23,28 -19,19 -43,34 -70,43 1,33 6,59 15,80 10,21 25,36 49,46l25 0 10 0 0 10 0 65 0 10 -10 0 -282 0 -10 0 0 -10 0 -65 0 -10 10 0 25 0c24,-11 40,-26 49,-47 9,-21 13,-47 15,-79 -27,-8 -51,-23 -70,-43 -9,-9 -16,-18 -23,-28 -31,-21 -95,-115 -119,-188 -7,-22 -11,-42 -10,-58 1,-19 9,-33 25,-40 17,-7 44,-5 84,11l2 0 326 0 2 0zm2 225c29,-37 63,-96 79,-144 6,-19 10,-37 9,-51 -1,-11 -5,-20 -14,-23 -13,-5 -35,-3 -69,11l0 164c0,15 -2,30 -6,44zm-339 -207c-34,-14 -56,-17 -69,-11 -9,4 -13,12 -14,23 -1,14 3,31 9,51 16,49 50,107 79,144 -4,-14 -6,-29 -6,-44l0 -164zm139 333c-2,33 -6,60 -16,82 -7,15 -17,28 -30,39l159 0c-13,-10 -22,-23 -29,-38 -10,-22 -15,-50 -17,-83 -11,2 -22,3 -33,3 -11,0 -22,-1 -33,-3zm187 -169l0 -162 -307 0 0 162c0,42 17,81 45,108 28,28 66,45 108,45 42,0 81,-17 108,-45 28,-28 45,-66 45,-108z"/>
 </g>
</svg>
