<?xml version="1.0" encoding="utf-8"?>
<!-- Generator: Adobe Illustrator 16.0.0, SVG Export Plug-In . SVG Version: 6.00 Build 0)  -->
<!DOCTYPE svg PUBLIC "-//W3C//DTD SVG 1.1//EN" "http://www.w3.org/Graphics/SVG/1.1/DTD/svg11.dtd">
<svg version="1.1" id="Слой_1" xmlns="http://www.w3.org/2000/svg" xmlns:xlink="http://www.w3.org/1999/xlink" x="0px" y="0px"
	 width="620.063px" height="633.163px" viewBox="-11.25 106 620.063 633.163" enable-background="new -11.25 106 620.063 633.163"
	 xml:space="preserve">
<g>
	<g>
		<path fill="none" stroke="#CBBB61" stroke-width="20" stroke-linecap="round" stroke-linejoin="round" stroke-miterlimit="10" d="
			M122.5,196.5l-55-55l-55,55l55,55L122.5,196.5z M395,475.25l-160-160l-55,55l160,160L395,475.25z M471.25,646.5l57.5,57.5l55-55
			l-57.5-57.5L471.25,646.5z M307.5,134L-1.25,442.75l55,55l307.5-310L307.5,134z M267.5,171.5l-55-55L2.5,327.75l55,55L267.5,171.5
			z M532.5,352.75L223.75,661.5l55,55L587.5,407.75L532.5,352.75z M542.5,464l-210,210l55,55l211.25-211.25L542.5,464z"/>
	</g>
</g>
</svg>
