<?xml version="1.0" encoding="UTF-8"?>
<!DOCTYPE svg PUBLIC "-//W3C//DTD SVG 1.1//EN" "http://www.w3.org/Graphics/SVG/1.1/DTD/svg11.dtd">
<!-- Creator: CorelDRAW X6 -->
<svg xmlns="http://www.w3.org/2000/svg" xml:space="preserve" width="600px" height="600px" version="1.1" style="shape-rendering:geometricPrecision; text-rendering:geometricPrecision; image-rendering:optimizeQuality; fill-rule:evenodd; clip-rule:evenodd"
viewBox="0 0 600 600"
 xmlns:xlink="http://www.w3.org/1999/xlink">
 <defs>
  <style type="text/css">
   <![CDATA[
    .fil0 {fill:#CBBB61;fill-rule:nonzero}
   ]]>
  </style>
 </defs>
 <g id="Слой_x0020_1">
  <metadata id="CorelCorpID_0Corel-Layer"/>
  <path class="fil0" d="M231 406c6,0 10,5 9,11 0,6 -5,10 -11,9l-30 -2 0 82 25 0c6,0 10,4 10,10 0,6 -4,10 -10,10l-25 0 0 52 59 0 0 -270 0 -7 6 -3 106 -43 14 -6 0 2 69 17 0 -171 -254 -77 0 56 122 36 7 2 0 7 0 90c0,6 -4,10 -10,10 -6,0 -10,-4 -10,-10l0 -82 -109 -32 0 86 33 5c5,1 9,6 8,11 -1,5 -6,9 -11,8l-30 -5 0 42 53 7c5,1 9,6 9,11 -1,5 -6,9 -11,9l-51 -6 0 80 33 2c6,0 10,5 9,11 0,6 -5,10 -11,9l-31 -2 0 38 31 2zm-51 18l-65 5 0 78 65 0 0 -83zm0 103l-75 0 -10 0 0 -10 0 -98 0 -9 9 -1 76 -5 0 -38 -74 8 -11 1 0 -11 0 -90 0 -8 8 -2 77 -19 0 -42 -73 19 -13 3 0 -13 0 -90 0 -7 6 -3 80 -34 0 -49 -157 68 0 480 157 0 0 -52zm-171 -444l177 -76 14 -6 0 1 267 81 7 2 0 7 0 183 87 22 8 2 0 8 0 281 0 10 -10 0 -174 0 -8 0 -2 0 -104 0 0 0 -71 0 -10 0 -177 0 -10 0 0 -10 0 -496 0 -7 6 -3zm377 191l0 304 164 0 0 -263 -164 -41zm-20 7l-86 35 0 263 86 0 0 -297zm-186 -178l-64 28 0 70 64 -17 0 -81zm318 256l0 48 16 2 0 -47 -16 -3zm-20 57l0 -70 0 -12 12 3 36 7 8 2 0 8 0 66 0 11 -11 -1 -36 -4 -9 -1 0 -9zm20 51l0 52 15 0 0 -50 -15 -1zm-20 62l0 -73 0 -11 11 1 35 3 9 1 0 9 0 69 0 10 -10 0 -35 0 -10 0 0 -10zm-49 -184l0 53 16 2 0 -52 -16 -4zm-20 62l0 -74 0 -12 12 3 36 8 8 2 0 8 0 71 0 11 -11 -1 -36 -4 -9 -1 0 -9zm20 53l0 57 15 0 0 -55 -15 -2zm-20 67l0 -78 0 -11 11 1 35 4 9 1 0 9 0 74 0 10 -10 0 -35 0 -10 0 0 -10zm-22 -377l0 60 21 2 0 -58 -22 -5zm-20 69l0 -81 0 -12 12 3 42 9 8 2 0 8 0 77 0 11 -11 -1 -41 -5 -9 -1 0 -9zm-188 49l-64 16 0 71 64 -7 0 -80z"/>
 </g>
</svg>
