<?xml version="1.0" encoding="utf-8"?>
<!-- Generator: Adobe Illustrator 16.0.0, SVG Export Plug-In . SVG Version: 6.00 Build 0)  -->
<!DOCTYPE svg PUBLIC "-//W3C//DTD SVG 1.1//EN" "http://www.w3.org/Graphics/SVG/1.1/DTD/svg11.dtd">
<svg version="1.1" id="Слой_1" xmlns="http://www.w3.org/2000/svg" xmlns:xlink="http://www.w3.org/1999/xlink" x="0px" y="0px"
	 width="437.125px" height="143.875px" viewBox="68.25 336.75 437.125 143.875"
	 enable-background="new 68.25 336.75 437.125 143.875" xml:space="preserve">
<g>
	<path fill="none" stroke="#CBBB61" stroke-width="16" stroke-miterlimit="10" d="M497.25,370.5c0-12.75-12.75-25.5-25.5-25.5"/>
	<path fill="none" stroke="#CBBB61" stroke-width="16" stroke-miterlimit="10" d="M76.5,370.5c0-12.75,12.75-25.5,25.5-25.5"/>
	<path fill="none" stroke="#CBBB61" stroke-width="16" stroke-miterlimit="10" d="M331.5,402.375
		c0,39.525,30.6,70.125,70.125,70.125s70.125-30.6,70.125-70.125c0-21.675-16.575-44.625-38.25-44.625H357
		c-12.75,0-25.5,12.75-25.5,25.5V402.375z"/>
	<path fill="none" stroke="#CBBB61" stroke-width="16" stroke-miterlimit="10" d="M242.25,402.375
		c0,39.525-30.6,70.125-70.125,70.125S102,441.9,102,402.375c0-21.675,16.575-44.625,38.25-44.625h76.5
		c12.75,0,25.5,12.75,25.5,25.5V402.375z"/>
	<path fill="none" stroke="#CBBB61" stroke-width="16" stroke-miterlimit="10" d="M306,396v-31.875
		c0-12.75-6.375-19.125-19.125-19.125s-19.125,6.375-19.125,19.125V396"/>
</g>
</svg>
