<?xml version="1.0" encoding="UTF-8"?>
<!DOCTYPE svg PUBLIC "-//W3C//DTD SVG 1.1//EN" "http://www.w3.org/Graphics/SVG/1.1/DTD/svg11.dtd">
<!-- Creator: CorelDRAW X6 -->
<svg xmlns="http://www.w3.org/2000/svg" xml:space="preserve" width="600px" height="600px" version="1.1" style="shape-rendering:geometricPrecision; text-rendering:geometricPrecision; image-rendering:optimizeQuality; fill-rule:evenodd; clip-rule:evenodd"
viewBox="0 0 600 600"
 xmlns:xlink="http://www.w3.org/1999/xlink">
 <defs>
  <style type="text/css">
   <![CDATA[
    .fil0 {fill:#CBBB61;fill-rule:nonzero}
   ]]>
  </style>
 </defs>
 <g id="Слой_x0020_1">
  <metadata id="CorelCorpID_0Corel-Layer"/>
  <path class="fil0" d="M276 135l-46 0c0,0 0,0 0,0 0,0 0,0 0,0l0 29c0,0 0,0 0,0 0,0 0,0 0,0l42 0c0,0 0,-1 1,-1l3 -28c0,0 0,0 0,0 0,0 0,0 0,0zm30 170c-55,0 -87,-27 -104,-62 -17,-34 -21,-76 -21,-108 0,-34 14,-66 37,-88 23,-23 54,-37 88,-37 34,0 66,14 88,37 23,23 37,54 37,88 0,33 -4,75 -21,108 -18,35 -49,62 -104,62zm-86 -71c14,29 40,51 86,51 46,0 72,-22 86,-51 15,-30 18,-69 18,-100 0,-29 -12,-55 -31,-74 -19,-19 -45,-31 -74,-31 -29,0 -55,12 -74,31 -19,19 -31,45 -31,74 0,31 3,69 18,100zm-198 357c-1,5 -6,9 -12,8 -5,-1 -9,-6 -8,-12 14,-83 29,-138 55,-177 27,-40 65,-64 127,-82l9 -3 3 9c12,39 28,73 47,103 6,9 12,18 18,26l8 -74 -16 -59 -3 -13 13 0 75 0 13 0 -3 13 -16 59 10 76c7,-9 13,-18 19,-28 19,-30 35,-64 47,-103l3 -9 9 3c62,19 99,40 125,79 25,38 39,93 55,181 1,5 -3,11 -8,12 -5,1 -11,-3 -12,-8 -15,-85 -28,-138 -52,-173 -21,-33 -53,-51 -104,-68 -12,37 -28,70 -46,99 -20,32 -43,59 -69,83l-7 6 -7 -6c-26,-24 -49,-51 -69,-83 -18,-29 -34,-62 -46,-99 -52,17 -84,38 -107,72 -24,37 -38,89 -52,170zm258 -105c7,9 15,17 23,25 8,-7 15,-15 22,-23l-12 -88 -25 0 -9 86zm46 -148l-49 0 11 41 27 0 11 -41zm-160 -198c5,-2 11,1 13,6 2,5 -1,11 -6,13 -20,7 -31,15 -35,21 -1,2 -2,3 -1,4 0,1 1,2 3,4 6,4 16,7 29,7 6,0 10,4 10,10 0,4 -3,8 -7,10l0 0c-19,6 -29,13 -33,19 -1,1 -1,2 -1,3 0,1 1,2 2,2 6,4 19,7 36,5 6,0 10,4 11,9 0,5 -2,9 -6,10 -14,6 -22,12 -25,18 -1,1 -1,2 -1,3 0,1 1,1 2,2 0,0 0,0 1,0 5,3 15,4 30,1 5,-1 11,3 12,8 1,5 -3,11 -8,12 -20,4 -35,2 -44,-4 0,0 -1,0 -1,0 -5,-3 -9,-8 -10,-13 -1,-5 -1,-11 2,-17 2,-4 4,-8 8,-11 -7,-2 -13,-4 -17,-7 -6,-4 -9,-9 -10,-14 -1,-6 0,-12 4,-18 3,-4 7,-9 14,-13 -4,-2 -7,-3 -9,-5 -5,-4 -9,-10 -10,-16 -1,-6 0,-13 4,-19 6,-10 21,-20 45,-29zm169 -26l46 0c6,0 11,2 14,6 4,4 6,9 6,14l0 29c0,6 -2,11 -6,14 -4,4 -9,6 -14,6l-42 0c-6,0 -10,-2 -14,-6 -3,-3 -6,-8 -6,-13l-2 -16c-3,-1 -7,-2 -10,-2 -4,0 -7,1 -10,2l-2 16c-1,5 -3,10 -6,13 -4,4 -8,6 -14,6l-42 0c-6,0 -11,-2 -14,-6 -4,-4 -6,-9 -6,-14l0 -29c0,-6 2,-11 6,-14 4,-4 9,-6 14,-6l46 0c1,0 1,0 2,0 5,1 9,3 12,6 2,2 4,5 5,8 3,-1 6,-1 9,-1 3,0 6,0 9,1 1,-3 3,-6 5,-8 3,-3 8,-5 12,-6 1,0 2,0 2,0zm46 20l-46 0c0,0 0,0 0,0 0,0 0,0 0,0l3 28c0,1 0,1 1,1l42 0c0,0 0,0 0,0 0,0 0,0 0,0l0 -29c0,0 0,0 0,0 0,0 0,0 0,0zm-46 -1l0 0 0 0c0,0 0,0 0,0zm-56 0l0 0c0,0 0,0 0,0l0 0z"/>
 </g>
</svg>
