<?xml version="1.0" encoding="utf-8"?>
<!-- Generator: Adobe Illustrator 15.1.0, SVG Export Plug-In . SVG Version: 6.00 Build 0)  -->
<!DOCTYPE svg PUBLIC "-//W3C//DTD SVG 1.1//EN" "http://www.w3.org/Graphics/SVG/1.1/DTD/svg11.dtd">
<svg version="1.1" id="Слой_1" xmlns="http://www.w3.org/2000/svg" xmlns:xlink="http://www.w3.org/1999/xlink" x="0px" y="0px"
	 width="517.417px" height="436px" viewBox="0 0 517.417 436" enable-background="new 0 0 517.417 436" xml:space="preserve">
<g>
	<path fill="none" stroke="#CBBB61" stroke-width="16" stroke-miterlimit="10" d="M2.475,430.999h509.999"/>
	<path fill="none" stroke="#CBBB61" stroke-width="16" stroke-miterlimit="10" d="M467.849,182.374v248.625"/>
	<path fill="none" stroke="#CBBB61" stroke-width="16" stroke-miterlimit="10" d="M191.175,10.249l321.299,198.899"/>
	<path fill="none" stroke="#CBBB61" stroke-width="16" stroke-miterlimit="10" d="M401.55,140.299V65.074h44.625v103.274"/>
	<path fill="none" stroke="#CBBB61" stroke-width="16" stroke-miterlimit="10" d="M335.25,187.474
		c0,17.851-15.299,33.15-33.15,33.15c-17.85,0-33.148-15.3-33.148-33.15c0-17.85,15.301-33.149,33.148-33.149
		C319.951,154.324,335.25,169.624,335.25,187.474z"/>
	<path fill="none" stroke="#CBBB61" stroke-width="16" stroke-miterlimit="10" d="M224.326,30.649v400.35"/>
	<path fill="none" stroke="#CBBB61" stroke-width="16" stroke-miterlimit="10" d="M424.5,343.023H268.951V431H424.5V343.023z"/>
	<path fill="none" stroke="#CBBB61" stroke-width="16" stroke-miterlimit="10" d="M179.7,320.074H90.45v110.925h89.25V320.074z"/>
	<path fill="none" stroke="#CBBB61" stroke-width="16" stroke-miterlimit="10" d="M2.475,253.773l221.851-87.975"/>
	<path fill="none" stroke="#CBBB61" stroke-width="16" stroke-miterlimit="10" d="M91.725,275.449h89.25"/>
	<path fill="none" stroke="#CBBB61" stroke-width="16" stroke-miterlimit="10" d="M47.1,235.924v195.075"/>
	<path fill="none" stroke="#CBBB61" stroke-width="16" stroke-miterlimit="10" d="M346.724,343.023V431"/>
</g>
</svg>
