<?xml version="1.0" encoding="UTF-8"?>
<!DOCTYPE svg PUBLIC "-//W3C//DTD SVG 1.1//EN" "http://www.w3.org/Graphics/SVG/1.1/DTD/svg11.dtd">
<!-- Creator: CorelDRAW X6 -->
<svg xmlns="http://www.w3.org/2000/svg" xml:space="preserve" width="600px" height="600px" version="1.1" style="shape-rendering:geometricPrecision; text-rendering:geometricPrecision; image-rendering:optimizeQuality; fill-rule:evenodd; clip-rule:evenodd"
viewBox="0 0 600 600"
 xmlns:xlink="http://www.w3.org/1999/xlink">
 <defs>
  <style type="text/css">
   <![CDATA[
    .fil0 {fill:#CBBB61;fill-rule:nonzero}
   ]]>
  </style>
 </defs>
 <g id="Слой_x0020_1">
  <metadata id="CorelCorpID_0Corel-Layer"/>
  <path class="fil0" d="M252 124l97 0c-8,-13 -18,-22 -28,-28 -6,-3 -13,-5 -19,-5 -6,0 -13,1 -19,4 -11,5 -21,14 -30,28zm302 95l0 370 0 10 -10 0 -193 0 -10 0 -82 0 -10 0 -193 0 -10 0 0 -10 0 -370 -26 0 -15 0 6 -14 89 -196 3 -6 6 0 380 0 6 0 3 6 92 196 7 14 -16 0 -26 0zm-488 0l0 360 183 0 0 -139 0 -10 10 0 82 0 10 0 0 10 0 139 183 0 0 -360 -468 0zm-31 -20l11 0 508 0 10 0 -83 -176 -367 0 -80 176zm296 250l-62 0 0 129 62 0 0 -129zm-217 -20l82 0 10 0 0 10 0 96 0 10 -10 0 -82 0 -10 0 0 -10 0 -96 0 -10 10 0zm72 20l-62 0 0 76 62 0 0 -76zm215 -20l82 0 10 0 0 10 0 96 0 10 -10 0 -82 0 -10 0 0 -10 0 -96 0 -10 10 0zm72 20l-62 0 0 76 62 0 0 -76zm-360 -186l82 0 10 0 0 10 0 96 0 10 -10 0 -82 0 -10 0 0 -10 0 -96 0 -10 10 0zm72 20l-62 0 0 76 62 0 0 -76zm215 -20l82 0 10 0 0 10 0 96 0 10 -10 0 -82 0 -10 0 0 -10 0 -96 0 -10 10 0zm72 20l-62 0 0 76 62 0 0 -76zm-215 -20l82 0 10 0 0 10 0 96 0 10 -10 0 -82 0 -10 0 0 -10 0 -96 0 -10 10 0zm72 20l-62 0 0 76 62 0 0 -76zm34 -139l-131 0 -16 0 7 -14c13,-26 30,-43 48,-52 9,-4 18,-6 28,-6 9,0 19,2 28,7 17,9 33,26 45,51l7 14 -16 0z"/>
 </g>
</svg>
