<?xml version="1.0" encoding="UTF-8"?>
<!DOCTYPE svg PUBLIC "-//W3C//DTD SVG 1.1//EN" "http://www.w3.org/Graphics/SVG/1.1/DTD/svg11.dtd">
<!-- Creator: CorelDRAW X6 -->
<svg xmlns="http://www.w3.org/2000/svg" xml:space="preserve" width="600px" height="600px" version="1.1" style="shape-rendering:geometricPrecision; text-rendering:geometricPrecision; image-rendering:optimizeQuality; fill-rule:evenodd; clip-rule:evenodd"
viewBox="0 0 600 600"
 xmlns:xlink="http://www.w3.org/1999/xlink">
 <defs>
  <style type="text/css">
   <![CDATA[
    .fil0 {fill:#CBBB61;fill-rule:nonzero}
   ]]>
  </style>
 </defs>
 <g id="Слой_x0020_1">
  <metadata id="CorelCorpID_0Corel-Layer"/>
  <path class="fil0" d="M229 195l61 56 87 -87 11 11 -92 92 -5 5 -6 -5 -67 -61 11 -12zm71 376c7,-9 17,-22 27,-34 102,-130 173,-221 173,-321 0,-55 -22,-104 -58,-140 -36,-36 -85,-58 -140,-58 -55,0 -105,22 -141,58 -36,36 -58,85 -58,140 0,102 72,194 176,327 8,10 16,21 22,28zm39 -24c-9,11 -18,23 -33,42l-6 8 -6 -8c-15,-20 -22,-28 -28,-36 -106,-135 -179,-229 -179,-336 0,-59 24,-112 63,-151 39,-39 93,-63 152,-63 59,0 113,24 151,63 39,39 63,92 63,151 0,106 -73,198 -176,331zm-38 -485c43,0 82,17 110,46 28,28 46,67 46,110 0,43 -17,82 -46,110 -28,28 -67,46 -110,46 -43,0 -82,-17 -110,-46 -28,-28 -46,-67 -46,-110 0,-43 17,-82 46,-110 28,-28 67,-46 110,-46zm99 57c-25,-25 -60,-41 -99,-41 -39,0 -74,16 -99,41 -25,25 -41,60 -41,99 0,39 16,74 41,99 25,25 60,41 99,41 39,0 74,-16 99,-41 25,-25 41,-60 41,-99 0,-39 -16,-74 -41,-99z"/>
 </g>
</svg>
