<?xml version="1.0" encoding="utf-8"?>
<!-- Generator: Adobe Illustrator 16.0.0, SVG Export Plug-In . SVG Version: 6.00 Build 0)  -->
<!DOCTYPE svg PUBLIC "-//W3C//DTD SVG 1.1//EN" "http://www.w3.org/Graphics/SVG/1.1/DTD/svg11.dtd">
<svg version="1.1" id="Слой_1" xmlns="http://www.w3.org/2000/svg" xmlns:xlink="http://www.w3.org/1999/xlink" x="0px" y="0px"
	 width="602.75px" height="602.833px" viewBox="-2 94.333 602.75 602.833" enable-background="new -2 94.333 602.75 602.833"
	 xml:space="preserve">
<g>
	<path fill="none" stroke="#B4A75A" stroke-width="16" stroke-miterlimit="10" d="M234.6,485.25
		C124.95,504.375,6.375,500.55,6.375,606.375v82.875h586.5v-82.875c0-105.825-114.75-102-228.225-121.125"/>
	<path fill="none" stroke="#B4A75A" stroke-width="16" stroke-miterlimit="10" d="M452.625,310.575l12.75-80.325
		c0,0,12.75-127.5-165.75-127.5s-165.75,127.5-165.75,127.5l12.75,76.5"/>
	<path fill="none" stroke="#B4A75A" stroke-width="16" stroke-miterlimit="10" d="M146.625,306.75c51,0,76.5-89.25,76.5-127.5
		c0,89.25,42.075,102,233.325,102"/>
	<path fill="none" stroke="#B4A75A" stroke-width="16" stroke-miterlimit="10" d="M158.1,305.475
		c-38.25,0-24.225,77.775,14.025,77.775c0,76.5,89.25,127.5,127.5,127.5s127.5-51,127.5-127.5c38.25,0,51-76.5,12.75-76.5"/>
	<path fill="none" stroke="#B4A75A" stroke-width="16" stroke-miterlimit="10" d="M146.625,498l-38.25,89.25h63.75l-51,102"/>
	<path fill="none" stroke="#B4A75A" stroke-width="16" stroke-miterlimit="10" d="M248.625,689.25l-51-198.9"/>
	<path fill="none" stroke="#B4A75A" stroke-width="16" stroke-miterlimit="10" d="M452.625,498l38.25,89.25h-63.75l51,102"/>
	<path fill="none" stroke="#B4A75A" stroke-width="16" stroke-miterlimit="10" d="M350.625,689.25l51-198.9"/>
	<path fill="none" stroke="#B4A75A" stroke-width="16" stroke-miterlimit="10" d="M261.375,500.55v35.7
		c0,21.675,16.575,38.25,38.25,38.25s38.25-16.575,38.25-38.25v-35.7"/>
	<path fill="none" stroke="#B4A75A" stroke-width="16" stroke-miterlimit="10" d="M360.825,648.45l-61.2-73.95l-61.2,73.95"/>
	<path fill="none" stroke="#B4A75A" stroke-width="16" stroke-miterlimit="10" d="M325.125,332.25c0-14.025,11.475-12.75,25.5-12.75
		s25.5-1.275,25.5,12.75"/>
	<path fill="none" stroke="#B4A75A" stroke-width="16" stroke-miterlimit="10" d="M223.125,332.25c0-14.025,11.475-12.75,25.5-12.75
		s25.5-1.275,25.5,12.75"/>
</g>
</svg>
