<?xml version="1.0" encoding="UTF-8"?>
<!DOCTYPE svg PUBLIC "-//W3C//DTD SVG 1.1//EN" "http://www.w3.org/Graphics/SVG/1.1/DTD/svg11.dtd">
<!-- Creator: CorelDRAW X6 -->
<svg xmlns="http://www.w3.org/2000/svg" xml:space="preserve" width="600px" height="600px" version="1.1" style="shape-rendering:geometricPrecision; text-rendering:geometricPrecision; image-rendering:optimizeQuality; fill-rule:evenodd; clip-rule:evenodd"
viewBox="0 0 600 600"
 xmlns:xlink="http://www.w3.org/1999/xlink">
 <defs>
  <style type="text/css">
   <![CDATA[
    .fil0 {fill:#CBBB61;fill-rule:nonzero}
   ]]>
  </style>
 </defs>
 <g id="Слой_x0020_1">
  <metadata id="CorelCorpID_0Corel-Layer"/>
  <path class="fil0" d="M314 250c-6,0 -10,-5 -10,-10 0,-6 5,-10 10,-10l57 1c6,0 10,5 10,10 0,6 -5,10 -10,10l-22 0 -20 48c-2,5 -8,8 -13,5 -5,-2 -8,-8 -5,-13l7 -16 -90 0 32 22c5,3 6,9 3,14 -3,5 -9,6 -14,3l-49 -34 -5 11c3,1 5,3 7,5 8,6 15,13 21,21 3,5 2,11 -3,14 -5,3 -11,2 -14,-3 -4,-6 -9,-12 -16,-16 -1,-1 -3,-2 -4,-3l-24 55c-2,5 -8,7 -13,5 -5,-2 -7,-8 -5,-13l23 -54c-15,-3 -31,0 -43,8 -13,8 -23,21 -26,37l0 0 0 0 0 0c-4,16 0,32 8,45 8,13 21,23 37,26l0 0 0 0 0 0c8,2 17,2 24,0 8,-2 16,-5 23,-10 5,-3 11,-2 14,3 3,5 2,11 -3,14 -9,6 -19,11 -30,13 -11,2 -22,2 -33,-1l0 0 0 0 0 0c-21,-5 -39,-18 -50,-35 -11,-17 -15,-39 -10,-60l0 0 0 0 0 0c5,-21 18,-39 35,-50 17,-11 39,-15 60,-10 0,0 1,0 1,0l33 -78c0,-1 1,-2 1,-2 2,-3 5,-4 9,-4 6,0 11,0 16,1 27,1 40,2 52,-9 4,-4 10,-3 14,1 4,4 3,10 -1,14 -18,16 -34,15 -66,14 -3,0 -6,0 -9,0l-16 36 116 0 2 -5 -13 0zm-304 -196c-6,0 -10,-4 -10,-10 0,-6 4,-10 10,-10l576 0c6,0 10,4 10,10 0,6 -4,10 -10,10l-576 0zm0 60c-6,0 -10,-4 -10,-10 0,-6 4,-10 10,-10l576 0c6,0 10,4 10,10 0,6 -4,10 -10,10l-23 0 0 465 23 0c6,0 10,4 10,10 0,6 -4,10 -10,10l-576 0c-6,0 -10,-4 -10,-10 0,-6 4,-10 10,-10l23 0 0 -465 -23 0zm533 0l-490 0 0 465 490 0 0 -83 -54 0c-6,0 -10,-4 -10,-10 0,-6 4,-10 10,-10l54 0 0 -224c-35,1 -62,8 -86,21 -25,14 -47,33 -69,56l-1 1 -2 1c-14,6 -28,12 -41,17 -42,16 -77,29 -84,61 -2,9 -3,19 -3,28 0,11 2,21 5,28 3,6 6,10 10,11 1,0 2,0 3,0l46 0c6,0 10,4 10,10 0,6 -4,10 -10,10l-46 0c-2,0 -5,0 -7,-1 -11,-3 -19,-11 -24,-22 -4,-10 -7,-23 -7,-36 0,-11 1,-22 4,-33 10,-42 50,-57 97,-75 13,-5 26,-10 39,-16 23,-23 46,-43 73,-58 26,-14 57,-23 95,-24l0 -118zm-137 292c19,0 36,8 48,20 12,12 20,29 20,48 0,19 -8,36 -20,48 -12,12 -29,20 -48,20 -19,0 -36,-8 -48,-20 -12,-12 -20,-29 -20,-48 0,-19 8,-36 20,-48 12,-12 29,-20 48,-20zm34 34c-9,-9 -21,-14 -34,-14 -13,0 -25,5 -34,14 -9,9 -14,21 -14,34 0,13 5,25 14,34 9,9 21,14 34,14 13,0 25,-5 34,-14 9,-9 14,-21 14,-34 0,-13 -5,-25 -14,-34z"/>
 </g>
</svg>
