<?xml version="1.0" encoding="utf-8"?>
<!-- Generator: Adobe Illustrator 16.0.0, SVG Export Plug-In . SVG Version: 6.00 Build 0)  -->
<!DOCTYPE svg PUBLIC "-//W3C//DTD SVG 1.1//EN" "http://www.w3.org/Graphics/SVG/1.1/DTD/svg11.dtd">
<svg version="1.1" id="Слой_1" xmlns="http://www.w3.org/2000/svg" xmlns:xlink="http://www.w3.org/1999/xlink" x="0px" y="0px"
	 width="602.75px" height="602.417px" viewBox="4.625 94.75 602.75 602.417" enable-background="new 4.625 94.75 602.75 602.417"
	 xml:space="preserve">
<g>
	<path fill="none" stroke="#D2BC5A" stroke-width="16" stroke-miterlimit="10" d="M306,689.25h293.25c0,0,0-52.275-25.5-103.275
		c-19.125-38.25-102-63.75-204-102v-76.5c0,0,38.25-25.5,38.25-76.5c12.75,0,25.5-51,0-63.75c0-7.65,34.425-71.4,25.5-114.75
		c-12.75-63.75-191.25-63.75-204-12.75c-76.5,0-25.5,117.3-25.5,127.5c-25.5,12.75-12.75,63.75,0,63.75c0,51,38.25,76.5,38.25,76.5
		v76.5c-102,38.25-184.875,63.75-204,102c-25.5,51-25.5,103.275-25.5,103.275H306z"/>
</g>
</svg>
