<?xml version="1.0" encoding="utf-8"?>
<!-- Generator: Adobe Illustrator 16.0.0, SVG Export Plug-In . SVG Version: 6.00 Build 0)  -->
<!DOCTYPE svg PUBLIC "-//W3C//DTD SVG 1.1//EN" "http://www.w3.org/Graphics/SVG/1.1/DTD/svg11.dtd">
<svg version="1.1" id="Слой_1" xmlns="http://www.w3.org/2000/svg" xmlns:xlink="http://www.w3.org/1999/xlink" x="0px" y="0px"
	 width="602.604px" height="449.563px" viewBox="4.667 181.375 602.604 449.563"
	 enable-background="new 4.667 181.375 602.604 449.563" xml:space="preserve">
<g>
	<path fill="none" stroke="#D2BC5A" stroke-width="16" stroke-miterlimit="10" d="M497.25,265.95l-25.5-51
		c-8.925-14.025-21.675-25.5-38.25-25.5H306c-16.575,0-29.325,11.475-38.25,25.5l-38.25,51H63.75c-38.25,0-51,17.85-51,43.35v265.2
		c0,26.775,12.75,48.45,52.275,48.45h481.95c39.525,0,52.275-21.675,52.275-48.45V309.3c0-26.775-12.75-43.35-52.275-43.35H497.25z"
		/>
	<path fill="none" stroke="#D2BC5A" stroke-width="16" stroke-miterlimit="10" d="M63.75,265.95l1.275-25.5
		c0-12.75,11.475-25.5,24.225-25.5h24.225c14.025,0,26.775,12.75,26.775,25.5v25.5"/>
	<path fill="none" stroke="#D2BC5A" stroke-width="16" stroke-miterlimit="10" d="M140.25,355.2c0,21.675-16.575,38.25-38.25,38.25
		s-38.25-16.575-38.25-38.25c0-21.675,16.575-38.25,38.25-38.25S140.25,333.525,140.25,355.2z"/>
	<path fill="none" stroke="#D2BC5A" stroke-width="16" stroke-miterlimit="10" d="M510,431.7c0,77.774-62.475,140.25-140.25,140.25
		c-77.775,0-140.25-62.476-140.25-140.25c0-77.775,62.475-140.25,140.25-140.25C447.525,291.45,510,353.925,510,431.7z"/>
	<path fill="none" stroke="#D2BC5A" stroke-width="16" stroke-miterlimit="10" d="M446.25,431.7c0,42.075-34.425,76.5-76.5,76.5
		s-76.5-34.425-76.5-76.5s34.425-76.5,76.5-76.5S446.25,389.625,446.25,431.7z"/>
</g>
</svg>
