<?xml version="1.0" encoding="UTF-8"?>
<!DOCTYPE svg PUBLIC "-//W3C//DTD SVG 1.1//EN" "http://www.w3.org/Graphics/SVG/1.1/DTD/svg11.dtd">
<!-- Creator: CorelDRAW X6 -->
<svg xmlns="http://www.w3.org/2000/svg" xml:space="preserve" width="600px" height="600px" version="1.1" style="shape-rendering:geometricPrecision; text-rendering:geometricPrecision; image-rendering:optimizeQuality; fill-rule:evenodd; clip-rule:evenodd"
viewBox="0 0 600 600"
 xmlns:xlink="http://www.w3.org/1999/xlink">
 <defs>
  <style type="text/css">
   <![CDATA[
    .fil0 {fill:#CBBB61;fill-rule:nonzero}
   ]]>
  </style>
 </defs>
 <g id="Слой_x0020_1">
  <metadata id="CorelCorpID_0Corel-Layer"/>
  <path class="fil0" d="M332 260l0 71 86 0 0 16 -86 0 0 181 0 8 -8 0 -64 0 0 16 0 8 -8 0 -163 0 -8 0 0 -8 0 -16 -73 0 -8 0 0 -8 0 -181 0 -8 0 -268 0 -8 8 0 73 0 0 -14 0 -8 8 0 163 0 8 0 0 8 0 14 64 0 8 0 56 0 0 -14 0 -8 8 0 122 0 8 0 0 8 0 14 66 0 8 0 0 8 0 268 0 8 -8 0 -73 0 0 -16 66 0 0 -252 -58 0 0 16 0 8 -8 0 -122 0 -8 0 0 -8 0 -16 -56 0 0 80 -16 0 0 -80 -56 0 0 16 0 8 -8 0 -163 0 -8 0 0 -8 0 -16 -65 0 0 252 102 0 0 16 -102 0 0 173 65 0 0 -14 0 -8 8 0 163 0 8 0 0 8 0 14 56 0 0 -173 -97 0 0 -16 97 0 0 -71 16 0zm-87 276l-148 0 0 8 148 0 0 -8zm-148 -16l148 0 0 -6 -148 0 0 6zm307 -457l106 0 0 -6 -106 0 0 6zm106 16l-106 0 0 8 106 0 0 -8zm-413 -16l148 0 0 -6 -148 0 0 6zm148 16l-148 0 0 8 148 0 0 -8z"/>
 </g>
</svg>
