<?xml version="1.0" encoding="utf-8"?>
<!-- Generator: Adobe Illustrator 16.0.0, SVG Export Plug-In . SVG Version: 6.00 Build 0)  -->
<!DOCTYPE svg PUBLIC "-//W3C//DTD SVG 1.1//EN" "http://www.w3.org/Graphics/SVG/1.1/DTD/svg11.dtd">
<svg version="1.1" id="Слой_1" xmlns="http://www.w3.org/2000/svg" xmlns:xlink="http://www.w3.org/1999/xlink" x="0px" y="0px"
	 width="191.25px" height="175.95px" viewBox="0 0 191.25 175.95" enable-background="new 0 0 191.25 175.95" xml:space="preserve">
<g>
	<path fill="#FFFFFF" stroke="#000000" stroke-miterlimit="10" d="M161.925,51H28.05C12.75,51,0,63.75,0,80.325V137.7h38.25v38.25
		H153V137.7h38.25V80.325C191.25,63.75,178.5,51,161.925,51z M133.875,155.549h-76.5v-47.174h76.5V155.549z M161.925,89.25
		c-5.1,0-8.925-3.827-8.925-8.926c0-5.1,3.825-10.199,8.925-10.199c5.103,0,10.2,3.824,10.2,10.199
		C172.125,84.15,168.3,89.25,161.925,89.25z M153,0H38.25v38.25H153V0z"/>
</g>
</svg>
