<?xml version="1.0" encoding="utf-8"?>
<!-- Generator: Adobe Illustrator 16.0.0, SVG Export Plug-In . SVG Version: 6.00 Build 0)  -->
<!DOCTYPE svg PUBLIC "-//W3C//DTD SVG 1.1//EN" "http://www.w3.org/Graphics/SVG/1.1/DTD/svg11.dtd">
<svg version="1.1" id="Слой_1" xmlns="http://www.w3.org/2000/svg" xmlns:xlink="http://www.w3.org/1999/xlink" x="0px" y="0px"
	 width="385.771px" height="385.837px" viewBox="124.563 190.333 385.771 385.837"
	 enable-background="new 124.563 190.333 385.771 385.837" xml:space="preserve">
<path fill="none" stroke="#CBBB61" stroke-width="16" stroke-miterlimit="10" d="M349.35,403.65
	c-12.75-3.825-24.225-8.925-38.25-14.025v-38.25c0,0,22.95-11.475,22.95-49.725c12.75,0,12.75-33.15,0-33.15
	c0-3.825,12.75-25.5,7.65-47.175c-7.65-30.6-96.9-30.6-104.55,0c-38.25-7.65-16.575,43.35-16.575,48.45
	c-12.75,0-12.75,31.875,0,31.875c0,38.25,26.775,56.1,26.775,56.1v31.875c-44.625,16.575-100.725,29.325-107.1,48.45
	c-7.65,22.95-7.65,66.3-7.65,66.3h165.75"/>
<path fill="none" stroke="#CBBB61" stroke-width="16" stroke-miterlimit="10" d="M387.6,466.125V447
	c2.551-26.775,24.226-48.45,51-48.45c26.775,0,51,21.675,51,48.45v19.125"/>
<path fill="#CBBB61" stroke="#CBBB61" stroke-miterlimit="10" d="M457.725,518.4c0,11.475-8.925,20.399-19.125,20.399
	c-11.475,0-19.125-8.925-19.125-20.399c0-11.476,8.926-20.4,19.125-20.4C448.8,498,457.725,506.925,457.725,518.4z"/>
<path fill="#CBBB61" stroke="#CBBB61" stroke-miterlimit="10" d="M438.6,549v-25.5"/>
<path fill="none" stroke="#CBBB61" stroke-width="16" stroke-miterlimit="10" d="M502.35,568.125h-127.5v-102h127.5V568.125z"/>
</svg>
