<?xml version="1.0" encoding="utf-8"?>
<!-- Generator: Adobe Illustrator 16.0.0, SVG Export Plug-In . SVG Version: 6.00 Build 0)  -->
<!DOCTYPE svg PUBLIC "-//W3C//DTD SVG 1.1//EN" "http://www.w3.org/Graphics/SVG/1.1/DTD/svg11.dtd">
<svg version="1.1" id="Слой_1" xmlns="http://www.w3.org/2000/svg" xmlns:xlink="http://www.w3.org/1999/xlink" x="0px" y="0px"
	 width="386.167px" height="386.042px" viewBox="93.75 215.625 386.167 386.042"
	 enable-background="new 93.75 215.625 386.167 386.042" xml:space="preserve">
<g>
	<path fill="none" stroke="#CBBB61" stroke-width="16" stroke-miterlimit="10" d="M280.5,447v114.75
		c-1.275,17.85-14.025,31.875-31.875,31.875h-114.75c-17.85,0-31.875-14.025-31.875-31.875V319.5
		c0-17.85,14.025-31.875,31.875-31.875h51"/>
	<path fill="none" stroke="#CBBB61" stroke-width="16" stroke-miterlimit="10" d="M471.75,338.625c0,12.75-12.75,25.5-25.5,25.5
		h-87.975l-52.275,51v-51h-51c-12.75,0-25.5-12.75-25.5-25.5v-89.25c0-12.75,12.75-25.5,25.5-25.5h191.25
		c12.75,0,25.5,12.75,25.5,25.5V338.625z"/>
	<path fill="none" stroke="#CBBB61" stroke-width="16" stroke-miterlimit="10" d="M323.85,287.625c-3.824,0-7.649,3.825-7.649,7.65
		c0,3.825,3.825,7.65,7.649,7.65c3.825,0,7.65-3.825,7.65-7.65C331.5,291.45,327.675,287.625,323.85,287.625L323.85,287.625z"/>
	<path fill="none" stroke="#CBBB61" stroke-width="16" stroke-miterlimit="10" d="M363.375,287.625c-3.825,0-7.65,3.825-7.65,7.65
		c0,3.825,3.825,7.65,7.65,7.65s7.65-3.825,7.65-7.65C372.3,291.45,368.475,287.625,363.375,287.625L363.375,287.625z"/>
	<path fill="none" stroke="#CBBB61" stroke-width="16" stroke-miterlimit="10" d="M393.975,286.35c-3.824,0-7.649,3.825-7.649,7.65
		s3.825,7.65,7.649,7.65c3.825,0,7.65-3.825,7.65-7.65C402.9,288.9,399.075,286.35,393.975,286.35L393.975,286.35z"/>
	<path fill="none" stroke="#CBBB61" stroke-width="16" stroke-miterlimit="10" d="M211.65,561.75c0,3.825-3.825,7.65-7.65,7.65
		s-7.65-3.825-7.65-7.65s3.825-7.65,7.65-7.65C207.825,552.825,211.65,556.65,211.65,561.75z"/>
	<path fill="none" stroke="#CBBB61" stroke-width="16" stroke-miterlimit="10" d="M280.5,529.875H102"/>
	<path fill="none" stroke="#CBBB61" stroke-width="16" stroke-miterlimit="10" d="M178.5,351.375H102"/>
	<path fill="none" stroke="#CBBB61" stroke-width="16" stroke-miterlimit="10" d="M165.75,319.5h12.75"/>
</g>
</svg>
