<?xml version="1.0" encoding="UTF-8"?>
<!DOCTYPE svg PUBLIC "-//W3C//DTD SVG 1.1//EN" "http://www.w3.org/Graphics/SVG/1.1/DTD/svg11.dtd">
<!-- Creator: CorelDRAW X6 -->
<svg xmlns="http://www.w3.org/2000/svg" xml:space="preserve" width="600px" height="600px" version="1.1" style="shape-rendering:geometricPrecision; text-rendering:geometricPrecision; image-rendering:optimizeQuality; fill-rule:evenodd; clip-rule:evenodd"
viewBox="0 0 600 600"
 xmlns:xlink="http://www.w3.org/1999/xlink">
 <defs>
  <style type="text/css">
   <![CDATA[
    .fil0 {fill:#CBBB61;fill-rule:nonzero}
   ]]>
  </style>
 </defs>
 <g id="Слой_x0020_1">
  <metadata id="CorelCorpID_0Corel-Layer"/>
  <path class="fil0" d="M281 575l0 -154 0 -10 10 0 72 0 10 0 0 10 0 154 58 0 0 -220 0 -5 4 -3 25 -18 0 -209 -72 0 -10 0 0 -10 0 -41 -50 -40 -51 40 0 40 0 10 -10 0 -72 0 0 126 35 24 4 3 0 5 0 297 47 0zm72 0l0 -145 -53 0 0 145 53 0zm-352 0l23 0 0 -297 0 -5 4 -3 97 -64 5 -3 5 4 41 27 0 -123 0 -10 10 0 72 0 0 -36 0 -5 4 -3 61 -48 6 -5 6 5 59 48 4 3 0 5 0 36 72 0 10 0 0 10 0 204 22 -16 6 -4 6 4 65 48 4 3 0 5 0 220 20 0 0 19 -598 0 0 -19zm42 0l52 0 0 -86 0 -9 10 0 50 0 10 0 0 9 0 86 52 0 0 -292 -85 -58 -87 58 0 292zm71 0l31 0 0 -77 -31 0 0 77zm335 0l28 0 0 -62 0 -10 10 0 38 0 10 0 0 10 0 62 28 0 0 -216 -55 -41 -56 41 0 216zm47 0l19 0 0 -53 -19 0 0 53z"/>
 </g>
</svg>
