<?xml version="1.0" encoding="UTF-8"?>
<!DOCTYPE svg PUBLIC "-//W3C//DTD SVG 1.1//EN" "http://www.w3.org/Graphics/SVG/1.1/DTD/svg11.dtd">
<!-- Creator: CorelDRAW X6 -->
<svg xmlns="http://www.w3.org/2000/svg" xml:space="preserve" width="600px" height="600px" version="1.1" style="shape-rendering:geometricPrecision; text-rendering:geometricPrecision; image-rendering:optimizeQuality; fill-rule:evenodd; clip-rule:evenodd"
viewBox="0 0 600 600"
 xmlns:xlink="http://www.w3.org/1999/xlink">
 <defs>
  <style type="text/css">
   <![CDATA[
    .fil0 {fill:#CBBB61;fill-rule:nonzero}
   ]]>
  </style>
 </defs>
 <g id="Слой_x0020_1">
  <metadata id="CorelCorpID_0Corel-Layer"/>
  <path class="fil0" d="M286 532l0 -222 -22 0c-17,21 -43,35 -81,36l0 42 63 0 8 0 -1 8 -20 136 54 0zm-68 0l19 -130 -131 0 19 130 92 0zm-107 0l-20 -136 -1 -8 8 0 70 0 0 -42c-54,-2 -84,-29 -97,-66 -6,-17 -8,-37 -7,-57 1,-20 5,-40 11,-60 19,-59 59,-109 100,-109 41,0 81,50 100,109 6,19 10,40 11,60 1,20 -1,40 -7,57 -2,6 -4,11 -7,16l254 0 0 0c6,0 12,3 16,7 4,4 7,10 7,17 0,6 -3,12 -7,17 -4,4 -10,7 -16,7l0 -14c3,0 5,-1 7,-3 2,-2 3,-4 3,-7 0,-3 -1,-5 -3,-7 -2,-2 -4,-3 -7,-3l0 0 -33 0 0 222 105 0 0 14 -598 0 0 -14 110 0zm368 0l0 -222 -51 0 0 222 51 0zm-65 0l0 -222 -51 0 0 222 51 0zm-65 0l0 -222 -51 0 0 222 51 0zm-182 -200l0 -150 14 0 0 150c47,-2 73,-25 84,-57 5,-16 7,-33 6,-52 -1,-19 -5,-38 -11,-56 -17,-54 -53,-100 -87,-100 -35,0 -70,46 -87,100 -6,18 -10,38 -11,56 -1,18 1,36 6,52 11,32 37,55 84,57z"/>
 </g>
</svg>
