<?xml version="1.0" encoding="utf-8"?>
<!-- Generator: Adobe Illustrator 16.0.0, SVG Export Plug-In . SVG Version: 6.00 Build 0)  -->
<!DOCTYPE svg PUBLIC "-//W3C//DTD SVG 1.1//EN" "http://www.w3.org/Graphics/SVG/1.1/DTD/svg11.dtd">
<svg version="1.1" id="Слой_1" xmlns="http://www.w3.org/2000/svg" xmlns:xlink="http://www.w3.org/1999/xlink" x="0px" y="0px"
	 width="610px" height="612.499px" viewBox="0 89.501 610 612.499" enable-background="new 0 89.501 610 612.499"
	 xml:space="preserve">
<path fill="#FFFFFF" stroke="#CBBB61" stroke-width="16" stroke-miterlimit="10" d="M480.675,702V574.5"/>
<path fill="#FFFFFF" stroke="#CBBB61" stroke-width="16" stroke-miterlimit="10" d="M266.475,702V447"/>
<path fill="none" stroke="#CBBB61" stroke-width="16" stroke-miterlimit="10" d="M135.15,447C48.45,447,10.2,390.9,10.2,334.8
	c0-56.1,36.975-112.2,124.95-112.2c0,0,0-124.95,112.2-124.95c112.2,0,112.2,124.95,112.2,124.95c86.7,0,124.95,49.725,124.95,112.2
	c0,56.1-36.975,112.2-124.95,112.2H135.15z"/>
<path fill="none" stroke="#CBBB61" stroke-width="16" stroke-miterlimit="10" d="M538.05,459.75c0,0,0-63.75-57.375-63.75
	c-5.1,0-10.2,1.275-14.024,1.275c-8.926,14.024-21.676,25.5-38.25,34.425c-5.101,14.024-5.101,28.05-5.101,28.05
	c-44.625,0-63.75,28.05-63.75,57.375S378.675,574.5,423.3,574.5h114.75c44.625,0,63.75-28.05,63.75-57.375
	C601.8,485.25,582.675,459.75,538.05,459.75z"/>
</svg>
