<?xml version="1.0" encoding="utf-8"?>
<!-- Generator: Adobe Illustrator 16.0.0, SVG Export Plug-In . SVG Version: 6.00 Build 0)  -->
<!DOCTYPE svg PUBLIC "-//W3C//DTD SVG 1.1//EN" "http://www.w3.org/Graphics/SVG/1.1/DTD/svg11.dtd">
<svg version="1.1" id="Слой_1" xmlns="http://www.w3.org/2000/svg" xmlns:xlink="http://www.w3.org/1999/xlink" x="0px" y="0px"
	 width="272.354px" height="519.333px" viewBox="190.813 157.167 272.354 519.333"
	 enable-background="new 190.813 157.167 272.354 519.333" xml:space="preserve">
<g>
	<path fill="none" stroke="#202830" stroke-width="16" stroke-miterlimit="10" d="M453.9,332.25c0,12.75-8.926,21.675-21.676,21.675
		H220.575c-11.475,0-21.675-10.2-21.675-21.675v-122.4c0-12.75,8.925-21.675,21.675-21.675H306l5.1-10.2
		c3.825-7.65,11.476-12.75,19.125-12.75h48.45c7.65,0,15.3,5.1,19.125,12.75l5.101,10.2h30.6c11.475,0,21.675,10.2,21.675,21.675
		v122.4H453.9z"/>
	<path fill="none" stroke="#202830" stroke-width="16" stroke-miterlimit="10" d="M242.25,176.7h-10.2v-10.2h10.2V176.7z"/>
	<path fill="none" stroke="#202830" stroke-width="16" stroke-miterlimit="10" d="M390.15,265.95
		c0,24.225-19.125,44.625-42.075,44.625S306,290.175,306,265.95c0-24.225,19.125-44.625,42.075-44.625S390.15,241.725,390.15,265.95
		z"/>
	<path fill="none" stroke="#202830" stroke-width="16" stroke-miterlimit="10" d="M262.65,398.55h127.5"/>
	<path fill="none" stroke="#202830" stroke-width="16" stroke-miterlimit="10" d="M354.45,398.55v122.4
		c0,6.375-5.101,11.475-10.2,11.475H316.2c-6.375,0-10.2-5.1-10.2-11.475v-122.4"/>
	<path fill="none" stroke="#202830" stroke-width="16" stroke-miterlimit="10" d="M453.9,663.75l-127.5-132.6"/>
	<path fill="none" stroke="#202830" stroke-width="16" stroke-miterlimit="10" d="M326.4,531.15V676.5"/>
	<path fill="none" stroke="#202830" stroke-width="16" stroke-miterlimit="10" d="M204,663.75l127.5-132.6"/>
</g>
</svg>
