<?xml version="1.0" encoding="utf-8"?>
<!-- Generator: Adobe Illustrator 16.0.0, SVG Export Plug-In . SVG Version: 6.00 Build 0)  -->
<!DOCTYPE svg PUBLIC "-//W3C//DTD SVG 1.1//EN" "http://www.w3.org/Graphics/SVG/1.1/DTD/svg11.dtd">
<svg version="1.1" id="Слой_1" xmlns="http://www.w3.org/2000/svg" xmlns:xlink="http://www.w3.org/1999/xlink" x="0px" y="0px"
	 width="526.417px" height="525.086px" viewBox="45.833 147.75 526.417 525.086"
	 enable-background="new 45.833 147.75 526.417 525.086" xml:space="preserve">
<g>
	<path fill="none" stroke="#202830" stroke-width="16" stroke-miterlimit="10" d="M128.775,591.075
		c-99.45-99.45-99.45-261.375,0-360.825c99.45-99.45,261.375-99.45,360.825,0c99.45,99.45,99.45,261.375,0,360.825"/>
	<path fill="none" stroke="#202830" stroke-width="16" stroke-miterlimit="10" d="M192.525,528.6
		c-65.025-65.024-65.025-170.85,0-235.875s170.85-65.025,234.6,0c65.025,65.025,65.025,170.85,0,234.6"/>
	<path fill="none" stroke="#202830" stroke-width="16" stroke-miterlimit="10" d="M409.275,665.025h-198.9
		c0-54.825,44.625-132.601,99.45-132.601S409.275,610.2,409.275,665.025z"/>
	<path fill="none" stroke="#202830" stroke-width="16" stroke-miterlimit="10" d="M376.125,421.5c0,36.975-29.325,66.3-66.3,66.3
		c-36.975,0-66.3-29.325-66.3-66.3c0-36.975,29.325-66.3,66.3-66.3C346.8,355.2,376.125,384.525,376.125,421.5z"/>
</g>
</svg>
