<?xml version="1.0" encoding="UTF-8"?>
<!DOCTYPE svg PUBLIC "-//W3C//DTD SVG 1.1//EN" "http://www.w3.org/Graphics/SVG/1.1/DTD/svg11.dtd">
<!-- Creator: CorelDRAW X6 -->
<svg xmlns="http://www.w3.org/2000/svg" xml:space="preserve" width="600px" height="600px" version="1.1" style="shape-rendering:geometricPrecision; text-rendering:geometricPrecision; image-rendering:optimizeQuality; fill-rule:evenodd; clip-rule:evenodd"
viewBox="0 0 600 600"
 xmlns:xlink="http://www.w3.org/1999/xlink">
 <defs>
  <style type="text/css">
   <![CDATA[
    .fil0 {fill:none}
    .fil1 {fill:#CBBB61;fill-rule:nonzero}
   ]]>
  </style>
 </defs>
 <g id="Слой_x0020_1">
  <metadata id="CorelCorpID_0Corel-Layer"/>
  <polygon class="fil0" points="400,321 560,321 560,496 400,496 "/>
  <polygon class="fil0" points="88,287 113,250 137,213 88,213 40,213 64,250 "/>
  <path class="fil1" d="M340 138c3,-4 10,-5 14,-2 4,3 5,10 2,14l-27 35c-3,4 -10,5 -14,2 -4,-3 -5,-10 -2,-14l27 -35zm60 173l160 0 10 0 0 10 0 175 0 10 -10 0 -160 0 -10 0 0 -10 0 -175 0 -10 10 0zm150 20l-18 0 0 155 18 0 0 -155zm-38 0l-21 0 0 155 21 0 0 -155zm-41 0l-21 0 0 155 21 0 0 -155zm-41 0l-20 0 0 155 20 0 0 -155zm-342 -62l16 -24 14 -22 -30 0 -30 0 14 22 16 24zm33 -14l-22 34 0 258c0,6 -4,10 -10,10 -6,0 -10,-4 -10,-10l0 -256 -23 -36 -24 -37 -10 -15 18 0 49 0 49 0 18 0 -10 15 -24 37zm235 186c5,-2 11,1 13,6 2,5 -1,11 -6,13 -10,4 -17,9 -21,16 -5,8 -6,18 -5,27 2,12 11,25 24,37 16,14 38,27 61,36 5,2 8,8 6,13 -2,5 -8,8 -13,6 -25,-10 -49,-24 -67,-40 -16,-15 -28,-31 -30,-49 -2,-13 0,-27 8,-40 6,-10 17,-19 32,-24zm-14 -17c5,-1 10,3 11,9 1,5 -3,10 -9,11 -48,5 -97,27 -134,55 -35,27 -59,60 -59,89 0,6 -4,10 -10,10 -6,0 -10,-4 -10,-10 0,-36 26,-75 67,-105 40,-30 92,-53 144,-59zm83 -145c-3,5 -9,7 -13,4 -5,-3 -7,-9 -4,-13 3,-6 6,-13 7,-19 2,-7 2,-13 2,-21 0,-9 -1,-18 -4,-26 -3,-8 -6,-16 -11,-23l-6 -8 8 -6c7,-4 12,-10 16,-18 4,-7 6,-15 6,-23 0,-13 -5,-26 -14,-34 -9,-9 -21,-14 -34,-14 -3,0 -6,0 -9,1 -3,1 -6,1 -9,2l-11 4 -3 -11c-4,-16 -13,-29 -25,-39 -12,-9 -27,-15 -44,-15 -18,0 -35,7 -48,18 -13,11 -21,27 -23,45l-1 8 -8 1c-16,1 -31,8 -41,20 -10,11 -17,26 -17,42 0,2 0,3 0,5 0,2 0,4 1,5 1,5 -3,11 -8,11 -5,1 -11,-3 -11,-8 0,-2 -1,-5 -1,-7 0,-2 0,-4 0,-7 0,-22 8,-41 22,-56 12,-13 28,-22 46,-25 4,-20 14,-37 29,-50 16,-14 37,-23 61,-23 21,0 41,7 56,19 13,10 23,24 29,40 1,0 1,0 2,0 4,-1 8,-1 13,-1 19,0 36,8 49,20 12,12 20,30 20,49 0,12 -3,23 -8,32 -4,7 -9,13 -15,19 4,7 7,14 9,21 3,10 5,21 5,32 0,9 -1,17 -3,25 -2,8 -5,16 -9,24zm-295 13c-2,-5 0,-11 5,-13 5,-2 11,0 13,5 7,15 18,28 32,37 13,9 30,14 47,14 11,0 22,-2 31,-6 6,-2 12,-6 17,-9l0 -87c0,0 0,0 -1,-1l-54 -54c-4,-4 -4,-10 0,-14 4,-4 10,-4 14,0l41 41 0 -112c0,-6 4,-10 10,-10 6,0 10,4 10,10l0 218 0 0c6,3 17,6 30,8 9,1 20,2 30,0 5,-1 10,3 11,9 1,5 -3,10 -9,11 -12,2 -25,1 -36,0 -11,-1 -21,-4 -28,-6l0 74c0,6 -4,10 -10,10 -6,0 -10,-4 -10,-10l0 -62c-3,2 -7,3 -10,5 -12,5 -25,7 -39,7 -21,0 -41,-6 -58,-17 -17,-11 -31,-27 -39,-46z"/>
 </g>
</svg>
