<?xml version="1.0" encoding="utf-8"?>
<!-- Generator: Adobe Illustrator 16.0.0, SVG Export Plug-In . SVG Version: 6.00 Build 0)  -->
<!DOCTYPE svg PUBLIC "-//W3C//DTD SVG 1.1//EN" "http://www.w3.org/Graphics/SVG/1.1/DTD/svg11.dtd">
<svg version="1.1" xmlns="http://www.w3.org/2000/svg" xmlns:xlink="http://www.w3.org/1999/xlink" x="0px" y="0px" width="600px"
	 height="473px" viewBox="0 0 600 473" enable-background="new 0 0 600 473" xml:space="preserve">
<g id="pyatnickoe" class="j-elizaveta-rezchikova" opacity="0.3">
	<polygon fill="#576BB2" stroke="#576BB2" stroke-miterlimit="10" points="234,211.333 232.333,227 230,236.5
		230,244.333 225,253 219.333,265.333 217.333,267.667 0,350.5 0,0 37.5,0 	"/>
</g>
<g id="skolkovskoe" class="j-hamidullina-alsu" opacity="0.3">
	<polygon fill="#81F781" stroke="#81F781" stroke-miterlimit="10" points="217.469,268.781 216.333,278.167
		216.333,295.834 216.333,316.334 218.5,323.665 219.833,333.665 225.666,349.165 225.666,354.999 228.333,360.165 234,367.665 
		241,376.503 244.666,384.17 245.666,385.67 79.5,473 0,473 0.188,351.417 	"/>
</g>
<g id="ostashkovskoe" class="j-rustamova-nargiz" opacity="0.3">
	<polygon fill="#FC60C5" stroke="#FC60C5" stroke-miterlimit="10" points="295,0 329.833,124.001 346.333,121.501
		360.833,120.335 365.333,121.668 379.5,128.001 395.833,134.168 406.167,136.501 417.167,137.668 427.167,138.833 437.417,139.25 
		443.833,142.5 448.75,145.75 457.333,158.917 600,28.333 600,0 	"/>
</g>
</svg>
