<?xml version="1.0" encoding="utf-8"?>
<!-- Generator: Adobe Illustrator 17.0.0, SVG Export Plug-In . SVG Version: 6.00 Build 0)  -->
<!DOCTYPE svg PUBLIC "-//W3C//DTD SVG 1.1//EN" "http://www.w3.org/Graphics/SVG/1.1/DTD/svg11.dtd">
<svg version="1.1" xmlns="http://www.w3.org/2000/svg" xmlns:xlink="http://www.w3.org/1999/xlink" x="0px" y="0px"
	 width="557.375px" height="540.333px" viewBox="0 0 557.375 540.333" enable-background="new 0 0 557.375 540.333"
	 xml:space="preserve">
<g id="basmanniy" class="j-voinov-vladimir" opacity="0.3">
	<polygon fill="#FF007A" stroke="#FF007A" stroke-miterlimit="10" points="482.5,45.625 468.625,60.875
		483.75,72.125 487.875,75.75 496.625,82.625 505.875,91.75 539.5,60.5 512,56.375 	"/>
	<polygon fill="#FF007A" stroke="#FF007A" stroke-miterlimit="10" points="408.25,127.375 426.5,148.375
		448.75,132.5 475.625,109.417 488.5,102.375 500.75,94.375 492.625,86 481.125,78 463.125,66.75 423.5,97.375 416.375,102.125 	"/>
	<polygon fill="#FF007A" stroke="#FF007A" stroke-miterlimit="10" points="427.375,151 429.5,159.813 430.25,166.875
		430.75,192.313 431.188,197.375 437.313,197.375 443.625,197.875 448.25,198.333 455.625,208.563 463.438,215.063 464.844,215.813 
		468.375,211.594 470.625,207.531 469.375,205.438 461.75,190.625 460.375,186.5 462.729,181.625 466.625,177.625 471.375,174.25 
		473.5,173.375 483.625,173.5 489.25,174.375 496.25,173.625 502,169.375 504.875,164.521 506,151 508.125,148.375 513.375,137.875 
		516.375,131.375 532.375,114.75 534.5,107.563 556.5,81.625 557.375,78.875 555.625,70.375 548.25,62.625 548,58.375 
		546.875,57.125 545.125,57.75 543.75,59.375 541.875,62.375 509.25,93.5 497.125,102.25 479.5,110.125 453.625,133.875 	"/>
</g>
<g id="meshanskiy" class="j-lanskova-julia" opacity="0.3">
	<path fill="#EA1174" stroke="#EA1174" stroke-miterlimit="10" d="M473.875,43.667
		c-1.74-2.389-11.25-3.625-11.25-3.625l-6.5-2l-7.5-2.625l-3.75-1l-10.5-4.5l-3.5-4L428,21.667l-5.125-7.5l-3.333-5l-3.917-3.25
		l-4.5-2.75l-4.875-1.875l-3.625-0.75H398l-4.25,1.25l-3.125,1L387,4.167l-2.875,1.375l-3.375,1.75l-1,0.75l-1.875,1.125l-4.375,1
		l-3.375,0.25l-5-0.125l-13.25-0.875l-3.75-1l-7.625-0.75l-7.5-1.25l-5.375-0.375L320.5,5.417l-6-0.875h-5.25v4v5.25v6.875v6v9.375
		l-1,3.5l-0.5,4.125l-0.75,2v4.625v6.75l1.25,3.375l3.125,10l1.5,5.5l0.375,6.375l0.75,4l0.875,5.375l0.375,3.125l0.25,3h6.5h7.125
		l6.75,0.75L342,99.417l5.5,1.125l10.375,2.25l5.625,1.5l6.25,1.875l6.375,2l8.25,4.5l6.625,4l4.875,1.875l1.875,0.875l1.5,0.75
		l1.375,1.5l1.125,0.625h1.625l1.25,0.75l1.125-1.625l0.375-1.375l0.5-2.5l2.25-8.625l1.125-4.25l1.625-4.5v-3.5l3.75-3.125
		l4.167-2.375l15.333-10.5l8.375-6.25l8.125-6.5l7.25-6.125l8.75-8.625l6.5-7C473.875,46.167,474.243,44.172,473.875,43.667z"/>
</g>
<g id="novoslobotskiy" class="j-grabeznaya-olga" opacity="0.3">
	<polygon fill="#9B1056" stroke="#9B1056" stroke-miterlimit="10" points="258.583,7.75 254.833,7.959 250.667,7.855
		244.25,7.855 241.375,8.875 239.542,10.042 235.25,10.917 234.208,11.417 233.375,11.417 231.344,11.625 228.906,12.031 
		228.625,13.781 228.625,16.406 228.25,21.188 227.667,25.085 227.083,28.418 226.083,33.835 225.75,36.585 225,40.835 
		224.583,44.085 224.167,47.752 223.5,51.168 223.5,54.585 222.75,59.002 221.75,63.502 221.25,68.086 220.583,72.086 220,75.336 
		219.5,78.502 219,80.669 218.583,84.502 219.875,86.5 228.313,94.75 236.063,103.688 244.281,112.125 248.75,116.406 
		251.667,115.084 255.667,112.667 261.5,109.834 266.667,106.584 274.667,102.584 281.833,101.417 289.5,100.5 297.833,99.5 
		304.417,99.25 314.417,98.417 313.75,93.334 312.75,87.25 312.084,81.417 311.584,77.584 310.5,73.334 309.584,68.584 
		308.084,63.584 307,60.5 302.334,58.75 297.417,56.584 293,53.917 289.333,51.417 283.75,48.334 278.167,44.834 274.583,42.667 
		271.417,42.167 269.417,42.417 265.167,42.584 264.5,38.75 263.5,34.25 262.917,29.833 261.917,25.917 261.25,21.417 260.25,16.5 
		259.333,11.5 	"/>
</g>
<g id="presnenskiy" class="j-neborskaya-ludmila" opacity="0.3">
	<polygon fill="#FF50B0" stroke="#FF50B0" stroke-miterlimit="10" points="245.875,122.25 243,125.75
		240.625,128.625 238,132 235.625,135.125 233.5,137.875 231.125,140.625 229.375,143.875 226.625,147 225.25,149 221,157.375 
		219.625,160.375 217.25,166.375 215.125,171.125 211.875,177.75 211.25,182.125 211.25,187.625 211.25,192.75 211.25,196.75 
		210.375,203 210.375,207.5 205.625,207.5 198,207.5 185.875,207.5 181.125,203.375 177.625,201.125 174.25,200.5 171.125,200.375 
		168.25,199.25 164.75,198.75 159.375,198.5 154.5,198.625 150.875,199.375 146.625,199.75 138.625,203.625 134.375,205.25 
		129.25,207.5 125,210 120.875,213.75 116.75,216.5 110.5,221.25 104.75,225.625 98.25,230.75 90.25,236.375 85,240.25 82.75,241.5 
		79.875,242.125 76.375,242.125 72.75,241.375 70.375,239 68.75,236.25 67.75,232.125 66.5,225.5 65.25,220.75 64.5,214.625 
		64.5,210.75 66.875,197.75 69.5,187 73.5,174.375 76,162.75 81.25,145.875 81.5,144 83.75,135.625 86.375,130.5 90.875,124.875 
		98.375,115.125 102.125,109.75 105.375,107.375 108.125,105.625 121.75,103 133,102 141.875,100.375 148.5,99.75 162.5,98.125 
		172.125,97 191,94.125 196.5,92 201.25,89.75 205.375,87 208.25,85.625 213.375,88.875 218.583,94.25 227.625,103.625 
		235.25,110.5 242.916,118.896 	"/>
</g>
<g id="moscow-city" class="j-voronkov-dmitriy" opacity="0.3">
	<polygon fill="#336606" stroke="#336606" stroke-miterlimit="10" points="66,222.333 72.333,220.438 79.333,216.948
		87.667,212.917 95.167,208.583 104.333,204 108.833,199.167 111,195.333 112.167,193.333 115.833,193.333 122.167,192.333
		129.5,191 135.667,190 141.167,188.667 143.5,192.5 147,200 142.167,202.333 135.833,204.833 127.5,208.583 120.833,212.917
		115.833,216.948 93.249,234.469 82.5,241.667 76.333,243 71.833,240.5 68.5,236.167 	"/>
</g>
<g id="plushiha" class="j-lanskova-julia" opacity="0.3">
	<polygon fill="#AF6491" stroke="#AF6491" stroke-miterlimit="10" points="135.402,327.183 153.387,309.24899999999997
	    171.15,290.69399999999996 188.514,253.69199999999995 187.943,214.37699999999995 210.065,213.63099999999994
	    207.71099999999998,250.50799999999995 217.077,287.26899999999995 181.196,315.51199999999994
	    182.37199999999999,303.60499999999996 177.082,306.69199999999995 141.85399999999998,336.03899999999993
	    135.402,327.183"></polygon>
</g>
<g id="hamovniki" class="j-feizulaeva-elena" opacity="0.3">
	<polygon fill="#F93887" stroke="#F93887" stroke-miterlimit="10" points="212.688,291.896 219.37599999999998,286.271
	    235.16799999999998,296.334 242.16799999999998,301.66700000000003 251.12599999999998,307.834 241.50099999999998,326.584
	    231.98899999999998,347.022 225.25099999999998,361.335 208.75099999999998,386.71 198.62599999999998,398.835
	    183.50099999999998,410.335 171.52399999999997,416.88599999999997 156.98699999999997,420.986 144.16799999999998,423.375
	    128.80999999999997,422.064 120.12699999999998,416.697 108.92199999999998,405.759 104.14499999999998,399.146
	    97.98599999999998,387.452 96.55499999999998,379.687 96.26599999999998,367.666 98.76699999999998,358.908
	    108.85399999999998,345.396 119.35199999999999,340.23400000000004 135.505,329.30500000000006 141.998,337.50200000000007
	    147.831,333.00200000000007 168.935,315.33500000000004 182.31,303.33500000000004 181.532,315.43600000000004
	    181.751,316.06500000000005 196.498,305.08600000000007 212.688,291.896"/>
</g>
<g id="kutuzovskiy" class="j-kyrjan-olga" opacity="0.3">
	<path fill="#5F39C6" stroke="#5F39C6" stroke-miterlimit="10" d="M71.438,255.708l4.75-1.042l5.063-1.25l3-1.25
		l3.083-1.417l4.583-2.417l4.75-2.667l4.583-3.542l4.583-2.625l4.167-3.583l5.25-4.333l4-3.667l5.25-4.833l4.167-3.5L133,217.25
		l7.417-2.833l4.5-2.167l5.5-1.667l7.667-1h5.333l5.167,1.083l2.333,1.083c0,0,3.917,5.385,3.917,7.5s1.417,3.417,1.417,3.417
		l1.833,4.167v2.917v13.5l-2.75,10.417l-2.833,5.75l-2.917,7.083l-5.333,7l-6.5,10.917l-3.083,4.75l-3.083,4.25l-8,6.833
		l-8.167,6.583l-8.75,7l-8.5,6.75l-8.417,6.583l-13.063,5.146l-6.438,1.625l-7.5,1.563l-4.188,1.875l-7.125,5.188l-3.063,3.813
		l-2.75,1.125l-3.25,2.938l-4.875,5.375l-7.188,6.688l-19.75,20L0.5,412.188v0.313L0.25,304.469l7.417-2.01l13.583-4.333l14.375-5.5
		L49.5,286.5l14.125-4.938L77.25,275l-2.563-9.063l-1.563-0.75L71.563,261L71.438,255.708z"/>
</g>
<g id="vorobjevi-gori" class="j-polishuk-kiril" opacity="0.3">
	<path fill="#3B258C" stroke="#3B258C" stroke-miterlimit="10" d="M97.917,338.583c-0.805-1.717-7.583,0-7.583,0
		l-5.083,2.083l-6.333,3.5l-3.417,3.25l-1.417,2.417l-1.417,1.417L69,351.75l-1.667,1l-2,1.75l-41,41L0.25,418.417v19.896
		l73.188,73.969l27.229,27.469l0.5,0.583l28.427-28.927l14.906-15l27.771-28.01l24.229-24.021l0.141-2.859l1.906-2.057l5.078,0.167
		l3.859-6.188v-0.813v-0.375l-13.943-18.792l-4.208,3.125l-6.75,4l-6.25,2.958l-5.792,3.042l-11,3.042l-7.01,1.781l-7.906,0.125
		l-10.469-0.063l-6.594,0.156l-3.938-1.125l-7.094-1.781l-5-3.531l-4.813-3.781l-8.063-6.875l-6-6.031l-2-3.188l-0.969-2.875
		l-1.031-2.938l-1.25-2.813l-1.031-4.063l-1.031-3.281l-0.813-3.781L84.5,366.469l0.844-1.281l0.328-1.844L86.5,359.5l2.047-5.906
		l0.969-3.016l1.266-2.938l2.468-3.328l2.188-2.75C95.438,341.563,98.328,339.461,97.917,338.583z"/>
</g>
<g id="donskoi" class="j-kasyan-alexandr" opacity="0.3">
	<path fill="#141FEF" stroke="#141FEF" stroke-miterlimit="10" d="M198.5,409.375
		c-0.12,2.485,6.083,7.875,6.083,7.875l3.229,4.438l3.25,4.875l5.313-4.031l5.25-5.469l4.031-6.594l5.094-6l4.625-5.844l4.031-5.188
		l5.219-6.063l8.875-8.875l11.188-12.938l5.125-6.375l8.625-10.625l12.875-14.875l1.063-1.188v-3.25v-0.813l-17.75-9.813
		l-14.313-8.188l-1.813,3.875l-2.125,4.063l-2.875,4l-1.125,5.563l-1.875,4.188l-1.875,5.188l-2.063,5.125l-2.875,6.688
		l-5.313,8.438l-5.688,9.063l-6,8.75l-6.25,9.75l-5.063,7.625l-5.188,5.813l-5.75,4.813l-4.25,4.203
		C200.188,407.578,198.53,408.759,198.5,409.375z"/>
</g>
<g id="danilovskiy" class="j-kasyan-alexandr" opacity="0.3">
	<polygon fill="#063DED" stroke="#063DED" stroke-miterlimit="10" points="265.5,372.5 272.625,375.25
		281.125,378.25 287.5,380.625 288.25,374.125 289.5,372.5 295.375,372.5 301.375,373.5 303.5,375.125 305.25,378.25 
		308.875,378.125 314.125,376.563 319.125,374.875 323.125,374.5 329.25,373.875 334.875,373.125 338.375,372.5 344.125,370.875 
		348,369.375 353,368.5 357.125,366.375 360.75,367.375 365,368.5 365,366.375 370.5,366.375 372.5,361.75 374,361.75 
		377.25,363.25 380,364.75 384.25,367 388,366.75 388,361.75 389.25,356.25 389.25,349 390.5,345.25 392.75,334.61 392.75,330.5 
		392.75,328.25 398.75,331 404.25,334.61 412.5,340 417.25,344.5 414.833,338.667 412.583,335.333 407.5,330.333 400.667,322.667 
		399.583,317.333 397.25,311.25 394.5,300.333 391.25,303.667 384.583,310.667 379.5,315.583 374.5,320.667 369.563,323.375 
		365.75,325.375 357.625,326.313 351.625,327.313 346.438,328.5 337.375,330.688 327.25,331.5 321.25,332.75 305.333,332.583 
		304.167,332.333 304.917,341.5 303.667,342.583 292.375,342.417 290.333,342.417 285.583,349.292 	"/>
</g>
<g id="taganskiy" class="j-voinov-vladimir" opacity="0.3">
	<polygon fill="#3C1972" stroke="#3C1972" stroke-miterlimit="10" points="403.438,289.438 405.25,297.375
		407.75,303.875 409.563,310.875 411.688,315.563 415.125,318.875 418.375,323.125 421.625,327 425.375,332.375 428.25,338.125 
		431.5,337.25 436.375,335.5 438.375,334.875 436.875,331.375 435.75,326.625 434.375,324 440.5,321.875 444.625,320.875 
		451.625,318 456.75,316.25 460.125,316.25 461.625,318.125 462.75,317.5 460.375,320.25 458.25,322.75 458.125,326.25 
		459.375,329.75 461.125,334.25 462.75,338.125 463.625,341.75 467.5,340.479 469.25,338.75 471.125,336.75 473.125,336.75 
		474.625,338.25 475.25,338.875 477.75,337.25 480.125,335.5 482.75,333.5 494.25,335.25 497.875,337.5 497.875,333.625 
		497.875,331.375 504.75,331.5 505.625,330.375 505.625,326.375 510,326.125 510,312.5 518.5,320.875 523.75,328.75 528.375,331 
		533,331.25 533.625,329.5 535.375,324.375 537.75,319.5 541,312.625 544.625,304.5 546.625,299.125 543.375,287 542.375,275.625 
		542.75,265.5 535.5,259 523.5,249.5 514.875,242.125 504.375,233 489.125,227 481,223.75 470.875,219.5 463,216.042 455.375,210 
		447.667,199.5 438.667,198.333 430.833,198.333 422.167,199.167 416.5,203 411.5,205.667 408,207.333 401.167,207.333 399.167,212 
		396.5,216.042 393.833,220.333 390.333,221.333 387.333,222.333 384.5,224.667 381.333,230.5 378.833,235.167 382.167,240.833 
		385.833,247.333 390.667,256.667 394,264 398,272 401,281.5 	"/>
</g>
<g id="chistie-prudi" class="j-voinov-vladimir" opacity="0.3">
	<polygon fill="#E879B6" stroke="#E879B6" stroke-miterlimit="10" points="387.583,122.333 369.583,140.667
		369.583,149.583 356.167,168 359.667,167.417 362.583,169.583 368.417,176.25 371.5,180.667 374.417,184.333 375.75,197.333 
		380.083,197.333 383.5,199.75 384.917,200.667 390,200.667 397,201.667 401.417,206.708 407.875,206.417 414.406,203.25 
		421.813,198.333 424.469,198.125 424.469,192.156 425.333,182.667 424.25,170.333 422.833,157.208 422.083,153.5 419.542,149.417 
		405.667,133.667 401.583,128.333 395.5,125.5 	"/>
</g>
<g id="kitaj-gorod" class="j-sheshenina-maria" opacity="0.3">
	<polygon fill="#2A129E" stroke="#2A129E" stroke-miterlimit="10" points="355.188,168.813 349.438,172.813
		344.313,175.438 333.75,176.875 325.5,179.333 316.667,181.417 313.583,182.5 310.667,185.583 305.417,190.75 300.5,197.083 
		294.125,210.5 290.375,221.75 289.375,222.438 289.375,226.625 292.875,228.625 297.438,233.375 308.375,228.563 321.563,225.563 
		328.688,223.313 335.313,222.375 338.375,223.625 351.75,223.625 358.938,225.563 365.438,228.75 372.5,232.625 375,233.375 
		376.375,231.375 380.438,225.563 384.188,218.938 387.438,217.438 391.625,215.625 393.563,211.688 394.563,207.563 396.5,202.375 
		391.563,201.563 389.688,201.438 385.188,201.5 379.75,198.333 375.625,198.333 374.375,193.563 373.625,186.938 373.5,184.438 
		369.938,179.938 365.063,173.688 362.188,170.5 359.5,168.188 	"/>
</g>
<g id="zamoskvoreche" class="j-kasyan-alexandr" opacity="0.3">
	<polygon fill="#00B3F2" stroke="#00B3F2" stroke-miterlimit="10" points="297.375,238.125 305.25,254
		307.375,258.875 308.5,263.125 310.5,268.75 311.5,274.75 312.75,278.75 315.5,286 317.375,292.5 318.25,299.375 319.375,313.5 
		322.125,317.25 329,325.625 332.375,325.625 341.375,325 344.25,323.375 350.875,322.25 358,321.5 364.625,319.375 369.875,317.25 
		374.5,313.5 378.833,309.875 387.625,300.333 390.625,297.25 402,284.756 398.125,274.875 396,270.042 389.625,256.375 
		384.125,246.5 378,235.625 374.75,234.063 368.5,231.563 362.25,227.938 357.938,226.063 351.688,224.313 338.313,224.313 
		334.875,223.125 328.938,224.125 320.438,226.625 311.813,228.438 308.813,229.313 297.375,234.125 	"/>
</g>
<g id="yakimanka" class="j-kasyan-alexandr" opacity="0.3">
	<polygon fill="#555582" stroke="#555582" stroke-miterlimit="10" points="293.531,241.469 286.438,253.531
		283.75,257.5 283.5,265.719 282.375,267.625 280.656,273.531 279,280 277.875,284.5 268.625,292.125 262.5,297.375 
		258.625,300.333 257.5,303.375 259.406,305.469 270.531,311.656 278.583,315.667 285.167,319.333 294,323.75 310.75,324.667 
		327.083,324.667 318.833,314.167 317.667,304.833 316.417,292.667 312.917,281.25 311.5,278 310.5,274.375 309.594,269.047 
		307.578,263.531 306.516,259.188 296.625,238.75 	"/>
</g>
<g id="ostozenka" class="j-tarasova-elena" opacity="0.3">
	<polygon fill="#008E1E" stroke="#008E1E" stroke-miterlimit="10" points="216.688,255.5 230.167,255.5
		230.167,256.5 232.75,256.5 232.333,252.667 233.583,252.25 233.583,249.25 236.583,249.667 236.583,250.583 239.417,250.333 
		246.5,250.333 252.417,250.333 254.417,250.5 255.083,249.25 256.75,249.25 260.417,249.25 264.417,253.333 267.625,255.583 
		270.333,257.542 278.5,262.667 278.5,267.688 277.625,269.5 277.438,272.688 276.25,275.75 275.375,279.688 274.563,281.708 
		267.5,287.563 255.813,297.25 254.625,298.438 248.438,293.438 247.594,292.563 244.625,292.188 244.5,295.625 243.5,296.625 
		224.688,283.188 222.375,280.5 221.438,275.625 219.75,269.188 217.563,261.438 	"/>
</g>
<g id="arbat" class="j-kyrjan-olga" opacity="0.3">
	<polygon fill="#62A56D" stroke="#62A56D" stroke-miterlimit="10" points="218.521,178.271 217.625,183.479
		217.219,190.656 215.969,198.375 215.406,203.875 214.656,212.188 213.563,219.375 213.563,227.906 213.219,236.094 
		213.219,242.438 215.438,252.563 216.375,254.563 223.469,254.563 230.266,254.563 231.094,254.563 231.203,255.625 
		231.469,255.625 231.766,255.625 231.766,254.391 231.484,253.313 231.328,252.484 231.109,251.891 232.641,251.656 
		232.641,248.828 232.641,248.203 236.969,248.781 237.547,248.813 237.688,249.016 237.609,249.469 240.281,249.406 
		251.484,249.344 253.719,249.391 253.875,249.375 254.531,248.328 259.656,248.344 257.167,243.5 256.667,238.125 256.375,234.667 
		257.5,226.625 258.458,219.625 259.375,213.417 259.375,203.063 257.188,194.063 254.5,188.438 252.688,185.25 244.875,185.25 
		237.313,183.5 230.5,182.438 223.625,180.375 	"/>
	<polygon fill="#62A56D" stroke="#62A56D" stroke-miterlimit="10" points="268.5,248.5 285.688,230.375
		264.75,220.438 264.25,225.313 263.688,230.563 262.625,238.375 262.625,241.313 	"/>
	<polygon fill="#62A56D" stroke="#62A56D" stroke-miterlimit="10" points="282.813,240.5 271.688,251.75
		273.625,254.563 277.813,257.438 278.938,257.438 286.688,242.563 	"/>
	<polygon fill="#62A56D" stroke="#62A56D" stroke-miterlimit="10" points="285.688,236.5 289.375,239.5
		291.688,235.625 288.25,232.5 	"/>
	<polygon fill="#62A56D" stroke="#62A56D" stroke-miterlimit="10" points="267.375,212.042 268.417,216.417
		268.583,217.167 275.542,220.438 282.625,224.583 285.688,225.583 287.5,217.625 288.458,212.417 277.542,212.667 	"/>
	<polygon fill="#62A56D" stroke="#62A56D" stroke-miterlimit="10" points="259.656,185.5 261.583,190.917
		263.583,196.083 264.417,202.417 264.417,205.833 267.375,207.583 276.417,207.583 285.688,208.583 291.417,208.583 294.5,199.25 
		280.833,192.25 274.156,188.5 268.417,187.417 	"/>
</g>
<g id="patriarshie-prudi" class="j-sheshenina-maria" opacity="0.3">
	<polygon fill="#9BC42C" stroke="#9BC42C" stroke-miterlimit="10" points="249.797,125.682 240.609,136.62
		232.172,148.37 223.547,166.432 218.703,177.354 223.5,179.276 229.359,181.073 231.297,181.526 235.25,182.167 240,183.042 
		244.344,184.057 245.219,184.354 247.641,184.26 252.672,184.26 257.484,174.682 268.484,155.557 273.797,148.307 	"/>
</g>
<g id="tverskoi" class="j-grabeznaya-olga" opacity="0.3">
	<polygon fill="#2E422E" stroke="#2E422E" stroke-miterlimit="10" points="259.656,184.354 273.797,187.458
		295.167,198.5 300.583,188.542 294.5,181.542 277.292,152.208 	"/>
	<polygon fill="#2E422E" stroke="#2E422E" stroke-miterlimit="10" points="305.188,184.354 311.75,178.563
		318.333,175.708 314.667,165.583 311.76,156.667 308.417,147.5 303.333,137.667 300.583,132.75 280.12,147.875 287.625,159.625 
		295.5,172.75 299.227,179.375 	"/>
	<polygon fill="#2E422E" stroke="#2E422E" stroke-miterlimit="10" points="253.5,122.333 274.375,142.625
		283.75,134.625 291.875,130.125 296.625,127.5 297.375,125.682 288.375,108.5 280.12,109 274.375,110.75 264.625,115.375 	"/>
</g>
<g id="sretenka" class="j-lanskova-julia" opacity="0.3">
	<polygon fill="#7E9B04" stroke="#7E9B04" stroke-miterlimit="10" points="302.313,133.438 308.125,144.563
		312.063,154.313 313.938,160.25 317.625,171.188 319.5,176 326,174.563 331.563,172.563 335.5,171.375 340.688,161.375 
		345.375,150.625 349.625,140.438 335.5,140.563 327.375,139.375 320.875,136.563 311.625,135.625 	"/>
	<polygon fill="#7E9B04" stroke="#7E9B04" stroke-miterlimit="10" points="342.125,171.5 344.5,171.5
		348.292,169.542 352.563,166.813 366.563,148.125 366.563,145.375 363.375,143.125 359.5,142.438 353.438,141.25 351.625,144.625 
		340.375,168.563 	"/>
	<polygon fill="#7E9B04" stroke="#7E9B04" stroke-miterlimit="10" points="366.292,138.417 382.458,120.667
		382.458,119.417 373.25,114.625 367.417,112.583 356.542,109.417 355.75,116.292 355.417,124.583 354.333,131.25 353.833,135.5 
		360.583,135.583 	"/>
	<polygon fill="#7E9B04" stroke="#7E9B04" stroke-miterlimit="10" points="325.438,105.25 326.625,113.625
		327.688,120.563 328.313,126.375 328.625,134.313 336.688,135.5 350.625,135.5 351.375,128 352.313,117.5 352.313,108.375 
		341.625,106.438 	"/>
	<polygon fill="#7E9B04" stroke="#7E9B04" stroke-miterlimit="10" points="289.375,107.958 298.25,125.167
		297.833,127.792 308.292,129.667 320.417,132.375 320.208,117.5 319.625,105.625 299.75,105.625 	"/>
	<polygon fill="#7E9B04" stroke="#7E9B04" stroke-miterlimit="10" points="322.5,107 323.167,132.375 324.75,132.75
		325.969,129 324.583,120.375 	"/>
</g>
</svg>
